<svg width="756" height="516" viewBox="0 0 756 516" fill="none" xmlns="http://www.w3.org/2000/svg">
<g filter="url(#filter0_ddd_1_206)">
<path d="M262.767 233.128C245.331 226.381 224.939 229.472 223.94 244.035C222.942 258.599 233.117 260.821 240.254 245.177C247.391 229.532 275.001 252.832 262.21 256.226C249.419 259.62 234.188 269.942 236.907 293.07C239.625 316.199 218.812 331.561 218.812 331.561C217.753 331.813 216.667 331.935 215.578 331.924C214.548 332.083 213.494 331.908 212.575 331.425C211.657 330.941 210.925 330.177 210.49 329.248C206.917 321.845 214.867 301.291 202.674 287.434C186.463 268.841 172.076 273.719 174.805 260.397C177.071 249.469 199.522 252.257 168.502 232.996C134.321 211.867 190.974 226.936 191.16 209.999C191.252 202.828 185.506 200.091 168.657 192.759C151.808 185.426 174.249 174.296 180.408 177.377C186.566 180.457 194.496 179.548 197.257 172.731C198.573 169.104 200.922 165.924 204.025 163.567C207.128 161.21 210.855 159.774 214.764 159.429C216.144 159.268 198.286 179.629 215.104 174.225C231.922 168.822 245.908 190.527 243.147 194.092C240.387 197.657 212.777 180.74 213.621 197.435C214.466 214.13 230.46 211.797 240.933 204.626C251.407 197.455 280.11 239.884 262.767 233.128Z" fill="url(#paint0_linear_1_206)"/>
<path d="M243.456 258.418C237.799 264.252 231.794 269.752 225.475 274.891C224.445 275.83 223.301 276.679 222.2 277.537L221.983 276.668C221.074 272.045 219.849 267.486 218.317 263.024C216.762 257.731 215.227 252.308 213.816 247.005C213.528 246.127 213.229 245.248 213.034 244.359C212.055 240.824 211.159 237.148 210.263 233.472C217.666 226.864 224.609 219.779 231.046 212.262C224.434 219.198 217.356 225.693 209.862 231.704C208.997 228.29 208.204 224.735 207.421 221.311C205.794 213.817 204.331 206.162 203.147 198.496L203.013 197.334C202.704 195.244 202.477 193.123 202.241 191.002C202.539 190.739 202.838 190.477 203.137 190.163C206.933 186.513 210.536 182.673 213.93 178.66C210.446 182.341 206.771 185.843 202.92 189.153C202.665 189.413 202.389 189.652 202.096 189.87C201.684 186.012 201.355 182.134 201.242 178.276C201.033 184.382 201.156 190.494 201.612 196.587C197.093 194.224 192.699 191.635 188.451 188.83C192.694 191.979 197.098 194.915 201.643 197.627C202.23 205.758 203.384 213.959 204.733 222.008C205.382 225.967 206.144 230.088 207.071 233.977C207.13 234.665 207.275 235.343 207.503 235.996C207.853 238.171 208.293 240.333 208.822 242.481C208.729 242.481 208.626 242.369 208.533 242.38C198.098 237.72 188.038 232.291 178.44 226.139C187.864 233.148 198.183 239.006 208.307 244.369C208.708 244.591 208.997 244.682 209.398 244.904C210.85 251.631 212.56 258.206 214.27 264.791C215.104 267.942 215.928 270.972 216.566 274.032C209.222 270.432 202.101 266.413 195.238 261.993C202.18 267.079 209.471 271.689 217.06 275.79C217.709 278.971 218.276 282.163 218.647 285.375C219.349 292.144 219.245 298.97 218.338 305.716C217.122 313.939 214.481 321.897 210.531 329.248C210.965 330.177 211.698 330.942 212.616 331.425C213.535 331.908 214.589 332.084 215.619 331.925C219.639 324.317 222.306 316.092 223.507 307.604C224.501 300.04 224.501 292.383 223.507 284.819C223.199 282.93 222.89 281.052 222.591 279.264C223.549 278.426 224.506 277.618 225.423 276.729C231.851 271.034 237.876 264.916 243.456 258.418Z" fill="#F2F2F2"/>
<path d="M191.18 228.169C173.363 230.886 158.667 244.167 166.463 257.771C174.064 271.083 183.353 267.871 180.15 250.449C176.813 232.774 211.685 239.713 203.58 249.116C195.475 258.519 189.275 275.163 203.93 293.292C218.163 310.917 210.49 333.389 210.49 333.389C209.838 334.115 209.093 334.756 208.276 335.298C207.591 335.924 206.712 336.308 205.779 336.388C204.846 336.469 203.913 336.241 203.126 335.742C196.535 331.702 191.551 311.169 174.506 305.958C151.046 298.676 142.436 310.28 136.659 297.524C131.86 286.869 151.757 277.587 114.527 276.83C71.6635 276.032 129.367 259.539 118.832 243.904C114.3 237.157 107.647 237.622 88.3269 239.672C68.7593 241.874 80.6132 218.846 88.1106 218.543C95.6081 218.24 101.818 213.15 99.6348 204.99C97.4515 196.829 98.6667 188.305 105.958 182.406C107.06 181.518 105.114 211.241 116.061 197.011C127.009 182.78 152.478 196.849 152.364 201.707C152.251 206.565 118.317 204.626 129.707 220.281C140.758 235.582 152.611 225.058 156.896 212.908C161.18 200.758 208.616 225.573 191.18 228.169Z" fill="url(#paint1_linear_1_206)"/>
<path d="M190.078 260.488C188.908 268.348 187.275 276.135 185.186 283.809C184.877 285.142 184.486 286.425 184.095 287.718C183.878 287.505 183.642 287.263 183.446 287.081C180.139 283.603 176.613 280.331 172.89 277.284C168.626 273.497 164.239 269.578 160.037 265.609C159.285 264.983 158.533 264.357 157.854 263.67C154.97 261.034 152.055 258.216 149.12 255.388C151.208 245.414 152.618 235.316 153.343 225.159C152.122 234.878 150.247 244.508 147.73 253.984C144.949 251.348 142.138 248.52 139.398 245.793C133.404 239.733 127.39 233.38 121.52 226.765L120.655 225.755C119.058 223.927 117.493 222.018 115.917 220.119C116 219.705 116.082 219.291 116.134 218.837C117.014 213.251 117.602 207.625 117.895 201.98C117.312 207.353 116.445 212.693 115.299 217.978C115.249 218.361 115.17 218.739 115.062 219.109C112.189 215.605 109.367 212.039 106.721 208.313C110.49 214.292 114.609 220.089 118.997 225.775C113.562 225.914 108.123 225.769 102.704 225.341C108.336 226.096 114.005 226.565 119.687 226.745C125.361 234.118 131.489 241.157 137.575 247.874C140.552 251.156 143.662 254.459 146.844 257.519C147.301 258.112 147.826 258.651 148.41 259.125C150.006 260.882 151.654 262.589 153.363 264.225C153.302 264.286 153.147 264.225 153.075 264.296C141.574 265.558 129.991 265.936 118.43 265.427C130.271 266.573 142.184 266.82 154.064 266.164C154.506 266.164 154.805 266.084 155.248 266.074C160.397 271.255 165.547 276.113 170.696 280.92C173.157 283.203 175.516 285.374 177.74 287.647C169.832 288.345 161.887 288.567 153.95 288.313C162.313 289.086 170.72 289.282 179.11 288.899C181.407 291.253 183.611 293.646 185.681 296.151C189.907 301.384 193.534 307.057 196.494 313.068C199.936 320.23 202.159 327.896 203.075 335.762C203.861 336.262 204.795 336.489 205.728 336.409C206.661 336.328 207.54 335.944 208.225 335.318C207.25 327.23 204.944 319.351 201.397 311.987C198.084 305.267 193.963 298.96 189.12 293.202L185.341 288.99C185.619 287.808 185.918 286.637 186.144 285.415C188.016 277.2 189.33 268.873 190.078 260.488Z" fill="#F2F2F2"/>
<path d="M735.116 230.502C716.053 201.616 682.057 180.265 665.085 195.506C648.113 210.747 660.966 225.684 688.412 216.716C715.858 207.747 732.511 267.679 709.658 255.943C686.805 244.207 652.85 237.299 632.304 266.77C611.645 296.393 564.034 288.243 564.034 288.243C562.172 287.236 560.413 286.056 558.782 284.718C554.549 281.688 553.437 278.486 553.983 275.497C556.485 262.751 590.368 249.237 586.774 218.685C582.191 177.892 555.322 165.883 573.643 154.147C588.7 144.552 619.585 175.114 593.344 115.475C564.395 49.9371 633.633 136.008 651.923 117.05C659.709 109.051 653.983 98.9617 636.413 70.1266C618.751 41.4633 664.508 56.0575 670.502 67.0462C676.496 78.0348 689.4 86.6904 700.801 82.3272C712.202 77.9641 726.486 78.6509 741.347 88.6194C743.592 90.1243 694.941 91.3666 726.084 105.789C757.228 120.212 755.096 161.762 747.145 162.429C739.195 163.096 715.652 110.324 699.122 130.231C682.593 150.138 709.164 166.994 732.572 171.64C755.868 176.427 754.025 259.276 735.116 230.502Z" fill="url(#paint2_linear_1_206)"/>
<path d="M679.092 235.552C664.168 235.241 649.273 234.152 634.467 232.29C631.862 232.047 629.318 231.654 626.712 231.28C626.908 230.866 627.145 230.401 627.31 230.028C630.89 223.658 633.911 217.002 636.342 210.131C639.637 202.253 643.046 194.214 646.64 186.528C647.107 185.183 647.657 183.867 648.288 182.589C650.585 177.407 653.139 172.155 655.693 166.904C673.736 168.196 692.006 169.156 709.607 168.227C692.016 168.227 674.467 166.52 657.001 164.409C659.328 159.49 661.924 154.501 664.406 149.683C669.936 139.22 675.868 128.787 682.284 118.687L683.314 117.212C685.075 114.475 687.001 111.789 688.896 109.132C689.627 109.203 690.358 109.264 691.141 109.274C700.739 109.708 710.317 109.89 719.658 109.425C710.245 109.355 701.121 108.789 691.903 107.87C691.213 107.853 690.525 107.792 689.843 107.688C693.324 102.81 696.96 98.0226 700.904 93.5484C694.136 100.152 687.836 107.201 682.047 114.647C677.804 106.567 673.973 98.4267 670.492 89.8418C673.448 98.5479 677.083 107.234 680.976 115.859C673.252 125.891 666.114 136.344 659.596 147.168C656.352 152.441 653.149 157.975 650.327 163.55C649.662 164.405 649.144 165.36 648.793 166.378C646.994 169.273 645.354 172.26 643.88 175.327C643.726 175.226 643.685 174.963 643.54 174.862C633.376 157.228 623.396 139.008 615.61 119.858C622.315 139.25 631.584 158.46 641.089 176.801C641.46 177.529 641.8 178.003 642.119 178.73C637.114 188.103 632.686 197.627 628.247 207.141C626.187 211.737 624.127 216.171 621.862 220.402C614.724 207.545 608.285 194.326 602.572 180.801C607.708 195.228 613.769 209.322 620.719 222.998C618.346 227.39 615.736 231.654 612.902 235.774C606.695 244.342 599.23 251.962 590.749 258.388C579.742 266.407 567.231 272.221 553.931 275.497C553.386 278.527 554.498 281.638 558.731 284.718C572.417 281.245 585.273 275.168 596.568 266.831C606.105 259.761 614.158 250.763 620.894 241.107C622.438 238.582 623.983 236.057 625.446 233.704C627.763 233.916 630.059 234.168 632.397 234.28C647.919 235.673 663.515 236.098 679.092 235.552Z" fill="#F2F2F2"/>
<path d="M366.721 126.565C390.161 106.607 424.466 95.1542 435.208 110.193C445.949 125.231 431.202 135.038 410.038 123.272C388.874 111.506 359.698 156.783 382.118 151.178C404.703 145.532 435.228 145.694 445.445 172.711C455.661 199.728 498.359 201.253 498.359 201.253C500.199 200.758 501.991 200.106 503.715 199.304C508.102 197.546 509.832 195.213 510.1 192.719C511.13 182.104 485.579 165.621 496.238 141.775C510.275 109.859 536.176 104.709 523.468 92.2858C512.994 82.095 479.06 101.436 516.259 58.0373C557.237 10.3559 476.773 67.7836 465.877 49.5534C461.222 41.8573 468.627 34.7268 490.759 14.5574C512.953 -5.46044 470.285 -1.38011 462.448 6.41697C454.611 14.214 441.449 19.0115 432.798 13.6182C424.147 8.22484 411.789 6.40688 396.639 11.9214C394.343 12.7496 435.548 21.8394 405.403 28.1922C375.105 34.6056 366.742 68.1977 373.364 70.0561C379.986 71.9144 413.179 33.5552 422.334 52.25C431.603 70.8842 404.641 80.0246 383.519 79.8529C362.447 79.8125 343.446 146.471 366.721 126.565Z" fill="url(#paint3_linear_1_206)"/>
<path d="M413.251 139.896C426.123 142.137 439.102 143.742 452.139 144.704C454.425 144.946 456.711 145.057 459.008 145.189C458.936 144.815 458.853 144.411 458.802 144.078C457.326 138.365 456.402 132.528 456.042 126.645C455.187 119.788 454.281 112.778 453.117 106.032C453.051 104.883 452.91 103.739 452.695 102.608C452.015 98.0628 451.14 93.4371 450.254 88.8113C434.549 86.8419 418.719 84.5694 403.91 80.9032C419.068 83.6506 434.372 85.5525 449.749 86.5995C448.987 82.2666 448.009 77.8429 447.082 73.5707C444.96 64.2687 442.479 54.9264 439.533 45.7557L439.018 44.4024C438.194 41.9178 437.216 39.4534 436.268 36.989C435.63 36.9183 434.981 36.8477 434.322 36.7265C426.011 35.4842 417.844 34.0298 409.945 32.1108C417.999 33.6157 425.887 34.6762 434.013 35.4741C434.595 35.5749 435.183 35.6357 435.774 35.6559C434.046 31.1601 432.069 26.7601 429.852 22.4756C434.001 28.8949 437.647 35.6138 440.759 42.5743C446.402 36.777 451.675 30.9292 456.783 24.637C452.098 31.1211 446.835 37.4638 441.335 43.7257C445.441 53.0405 448.943 62.6006 451.819 72.3486C453.271 77.1056 454.621 82.0747 455.62 87.0035C455.98 87.7969 456.183 88.6504 456.217 89.5183C457.034 92.1412 457.695 94.8088 458.194 97.5073C458.349 97.5073 458.452 97.2447 458.596 97.1942C471.655 84.7613 484.693 71.8234 496.093 57.8048C485.527 72.2274 472.839 86.0843 460.213 99.2141C459.719 99.7393 459.317 100.052 458.812 100.578C460.748 108.92 462.17 117.283 463.591 125.635C464.25 129.675 464.847 133.554 465.754 137.321C475.022 128.15 483.807 118.798 492.046 108.809C484.031 119.57 475.361 129.847 466.083 139.583C467.009 143.493 468.175 147.345 469.574 151.117C472.766 159.044 477.257 166.406 482.87 172.913C490.444 181.282 499.7 188.025 510.059 192.718C509.791 195.213 508.061 197.546 503.673 199.304C493.058 194.385 483.591 187.371 475.867 178.7C469.627 171.384 464.775 163.031 461.541 154.036C460.841 151.764 460.151 149.511 459.482 147.35C457.422 147.138 455.424 146.956 453.405 146.663C439.894 145.204 426.484 142.945 413.251 139.896Z" fill="#F2F2F2"/>
<g style="mix-blend-mode:soft-light">
<path d="M607.732 451.284C619.556 448.285 632.001 448.597 643.654 452.183C658.628 456.819 674.22 463.495 660.925 468.413C638.432 476.736 627.433 482.028 604.138 497.329C580.842 512.631 551.171 489.108 511.913 504.399C484.704 514.984 408.39 476.453 481.913 464.666C537.268 455.778 566.97 461.576 607.732 451.284Z" fill="black"/>
</g>
<g style="mix-blend-mode:soft-light">
<path d="M243.456 439.144C243.456 439.144 356.608 449.789 315.043 461.576C273.477 473.362 306.639 506.015 258.544 507.782C210.449 509.55 214.96 490.542 183.909 494.754C152.859 498.965 90.9839 502.298 54.4441 489.158C17.9043 476.018 -25.7416 448.971 32.0753 446.163C89.8923 443.355 136.545 455.253 178.451 439.093C220.356 422.934 243.456 439.144 243.456 439.144Z" fill="black"/>
</g>
<path d="M228.647 81.6606H651.8C660.041 81.6606 666.723 88.2128 666.723 96.2953V379.202C666.723 387.284 660.041 393.837 651.8 393.837H228.647C220.405 393.837 213.724 387.284 213.724 379.202V96.2953C213.724 88.2128 220.405 81.6606 228.647 81.6606Z" fill="#F2F2F2"/>
<path d="M228.646 74.6167L228.086 74.6235C216.336 74.9163 206.68 84.3828 206.68 96.2954V379.202C206.68 391.303 216.645 400.88 228.646 400.88H651.8C663.802 400.88 673.767 391.303 673.767 379.202V96.2954C673.767 84.1939 663.802 74.6167 651.8 74.6167H228.646Z" fill="#F2F2F2" stroke="#473A24" stroke-width="14.0876"/>
<path d="M651.8 81.6606H228.647C224.689 81.6606 220.893 83.2025 218.095 85.947C215.296 88.6916 213.724 92.4139 213.724 96.2953V108.678H666.723V96.2953C666.723 92.4139 665.15 88.6916 662.352 85.947C659.553 83.2025 655.758 81.6606 651.8 81.6606Z" fill="#FFA726"/>
<path d="M635.518 95.1743C635.518 95.9594 635.755 96.7268 636.2 97.3795C636.644 98.0322 637.276 98.541 638.016 98.8414C638.756 99.1418 639.569 99.2204 640.355 99.0673C641.14 98.9141 641.861 98.5361 642.427 97.981C642.993 97.4259 643.378 96.7186 643.535 95.9487C643.691 95.1787 643.611 94.3807 643.304 93.6554C642.998 92.9301 642.479 92.3102 641.814 91.874C641.148 91.4379 640.365 91.2051 639.565 91.2051C639.033 91.2038 638.506 91.3055 638.014 91.5045C637.523 91.7035 637.076 91.9958 636.7 92.3647C636.324 92.7335 636.026 93.1716 635.823 93.6538C635.62 94.136 635.516 94.6527 635.518 95.1743Z" fill="#F2F2F2"/>
<path d="M616.578 95.1743C616.578 95.9594 616.815 96.7268 617.26 97.3795C617.705 98.0322 618.337 98.541 619.077 98.8414C619.816 99.1418 620.63 99.2204 621.415 99.0673C622.2 98.9141 622.921 98.5361 623.487 97.981C624.053 97.4259 624.439 96.7186 624.595 95.9487C624.751 95.1787 624.671 94.3807 624.365 93.6554C624.058 92.9301 623.54 92.3102 622.874 91.874C622.208 91.4379 621.426 91.2051 620.625 91.2051C620.094 91.2038 619.567 91.3055 619.075 91.5045C618.583 91.7035 618.137 91.9958 617.76 92.3647C617.384 92.7335 617.086 93.1716 616.883 93.6538C616.68 94.136 616.577 94.6527 616.578 95.1743Z" fill="#F2F2F2"/>
<path d="M601.686 99.1336C599.457 99.1336 597.649 97.3611 597.649 95.1745C597.649 92.9879 599.457 91.2153 601.686 91.2153C603.916 91.2153 605.724 92.9879 605.724 95.1745C605.724 97.3611 603.916 99.1336 601.686 99.1336Z" fill="#F2F2F2"/>
<path d="M294.733 133.412H481.428C485.637 133.412 489.049 136.758 489.049 140.886V201.303C489.049 205.431 485.637 208.777 481.428 208.777H294.733C290.524 208.777 287.112 205.431 287.112 201.303V140.886C287.112 136.758 290.524 133.412 294.733 133.412Z" fill="#E6E6E6"/>
<path d="M526.089 171.959V203.584C526.099 206.184 527.157 208.675 529.031 210.513C530.906 212.352 533.446 213.389 536.097 213.398H650.282C651.598 213.404 652.902 213.155 654.119 212.664C655.336 212.172 656.441 211.45 657.372 210.537C658.302 209.625 659.039 208.54 659.54 207.347C660.041 206.154 660.295 204.875 660.289 203.584V195.623C656.219 194.076 652.371 192.016 648.841 189.496C631.717 177.94 634.944 169.318 621.373 177.94C607.803 186.561 606.409 193.752 593.25 186.882C580.091 180.012 575.48 178.811 568.232 186.882C560.984 194.953 554.998 197.347 546.992 185.46C540.661 175.977 532.543 169.868 526.875 171.703C526.595 171.72 526.324 171.808 526.089 171.959Z" fill="url(#paint4_linear_1_206)"/>
<path d="M526.089 177.628V203.584C526.099 206.184 527.157 208.675 529.031 210.513C530.906 212.351 533.446 213.389 536.097 213.398H650.282C651.598 213.404 652.902 213.155 654.119 212.664C655.336 212.172 656.441 211.45 657.372 210.537C658.302 209.625 659.039 208.54 659.54 207.347C660.041 206.154 660.295 204.875 660.289 203.584V196.494C656.295 195.292 652.454 193.646 648.841 191.587C631.717 182.415 634.944 175.564 621.373 182.415C607.803 189.267 606.409 194.953 593.25 189.496C580.091 184.039 575.48 183.076 568.232 189.496C560.984 195.916 554.998 197.898 546.992 188.405C540.324 180.471 531.879 175.564 526.089 177.628Z" fill="url(#paint5_linear_1_206)"/>
<path d="M526.071 180.232V203.556C526.086 206.172 527.152 208.676 529.037 210.525C530.923 212.375 533.477 213.42 536.144 213.435H650.244C652.506 213.445 654.703 212.695 656.469 211.31C658.236 209.925 659.465 207.988 659.952 205.822C660.201 205.092 660.324 204.326 660.317 203.556V201.887C657.399 201.062 653.77 199.273 648.907 196.301C631.67 185.708 634.953 177.847 621.354 185.708C607.756 193.568 606.39 200.108 593.203 193.963C580.016 187.817 575.434 186.46 568.195 193.963C560.956 201.465 554.97 203.602 546.955 192.651C540.277 183.442 531.897 177.847 526.071 180.232Z" fill="url(#paint6_linear_1_206)"/>
<path opacity="0.05" d="M526.07 203.557V207.602C526.085 210.217 527.151 212.722 529.037 214.571C530.923 216.42 533.476 217.466 536.143 217.48H630.333V213.435H536.143C533.476 213.421 530.923 212.375 529.037 210.526C527.151 208.677 526.085 206.173 526.07 203.557Z" fill="black"/>
<g opacity="0.05">
<path d="M463.076 169.671H475.517V197.81H463.076V169.671Z" fill="black"/>
<path d="M443.272 161.743H455.713V197.819H443.272V161.743Z" fill="black"/>
<path d="M423.467 167.853H435.908V197.809H423.467V167.853Z" fill="black"/>
<path d="M403.663 155.885H416.104V197.81H403.663V155.885Z" fill="black"/>
<path d="M383.848 165.257H396.289V197.819H383.848V165.257Z" fill="black"/>
<path d="M364.044 150.421H376.485V197.809H364.044V150.421Z" fill="black"/>
<path d="M344.239 155.885H356.68V197.81H344.239V155.885Z" fill="black"/>
<path d="M324.435 150.421H336.876V197.809H324.435V150.421Z" fill="black"/>
<path d="M304.631 142.624H317.072V197.819H304.631V142.624Z" fill="black"/>
</g>
<path d="M461.078 169.67H473.519V197.809H461.078V169.67Z" fill="#F2F2F2"/>
<path d="M441.274 161.742H453.715V197.819H441.274V161.742Z" fill="#F2F2F2"/>
<path d="M421.469 167.853H433.91V197.809H421.469V167.853Z" fill="#F2F2F2"/>
<path d="M401.665 155.884H414.105V197.809H401.665V155.884Z" fill="#F2F2F2"/>
<path d="M381.86 165.257H394.301V197.819H381.86V165.257Z" fill="#F2F2F2"/>
<path d="M362.056 150.42H374.497V197.809H362.056V150.42Z" fill="#F2F2F2"/>
<path d="M342.252 155.884H354.692V197.809H342.252V155.884Z" fill="#F2F2F2"/>
<path d="M322.447 150.42H334.888V197.809H322.447V150.42Z" fill="#F2F2F2"/>
<path d="M302.632 142.624H315.073V197.819H302.632V142.624Z" fill="#F2F2F2"/>
<path d="M461.078 177.66H473.519V197.809H461.078V177.66Z" fill="url(#paint7_linear_1_206)"/>
<path d="M441.274 171.983H453.715V197.819H441.274V171.983Z" fill="url(#paint8_linear_1_206)"/>
<path d="M421.469 176.356H433.91V197.809H421.469V176.356Z" fill="url(#paint9_linear_1_206)"/>
<path d="M401.665 167.792H414.105V197.819H401.665V167.792Z" fill="url(#paint10_linear_1_206)"/>
<path d="M381.86 174.498H394.301V197.819H381.86V174.498Z" fill="url(#paint11_linear_1_206)"/>
<path d="M362.056 163.874H374.497V197.809H362.056V163.874Z" fill="url(#paint12_linear_1_206)"/>
<path d="M342.252 167.792H354.692V197.819H342.252V167.792Z" fill="url(#paint13_linear_1_206)"/>
<path d="M322.447 163.874H334.888V197.809H322.447V163.874Z" fill="url(#paint14_linear_1_206)"/>
<path d="M302.632 158.288H315.073V197.819H302.632V158.288Z" fill="url(#paint15_linear_1_206)"/>
<g opacity="0.05">
<path d="M303.829 304.719C304.052 300.473 305.932 296.474 309.08 293.55C312.228 290.626 316.402 289.002 320.738 289.014C322.811 289.04 324.865 289.404 326.817 290.091C330.112 291.874 332.712 294.677 334.21 298.063C335.709 301.448 336.021 305.225 335.099 308.804C334.177 312.382 332.072 315.56 329.113 317.84C326.155 320.121 322.509 321.377 318.746 321.41C316.894 321.421 315.057 321.09 313.331 320.434C313.22 320.542 312.999 320.434 312.888 320.325C310.135 318.951 307.821 316.858 306.204 314.277C304.586 311.695 303.726 308.726 303.718 305.696C303.7 305.367 303.738 305.037 303.829 304.719ZM314.548 315.774C315.822 316.566 317.253 317.084 318.746 317.294C319.403 317.42 320.069 317.493 320.738 317.511C323.93 317.502 326.988 316.254 329.244 314.04C331.5 311.826 332.77 308.826 332.777 305.696C332.801 303.21 332.009 300.782 330.517 298.772C329.025 296.761 326.913 295.275 324.493 294.533C323.292 294.095 322.019 293.877 320.738 293.89C318.121 293.877 315.571 294.705 313.479 296.248C311.387 297.79 309.868 299.962 309.154 302.431C308.439 304.9 308.569 307.531 309.523 309.921C310.477 312.311 312.204 314.329 314.438 315.666L314.548 315.774Z" fill="black"/>
<path d="M279.198 289.014C281.317 289.012 283.416 289.415 285.379 290.199C285.797 290.393 286.204 290.611 286.596 290.851C289.626 292.847 291.921 295.745 293.143 299.117C294.366 302.49 294.451 306.158 293.387 309.582C292.322 313.005 290.164 316.003 287.231 318.132C284.298 320.262 280.744 321.411 277.095 321.41C275.207 321.421 273.334 321.09 271.569 320.433C268.759 319.082 266.391 316.985 264.735 314.38C263.08 311.774 262.203 308.766 262.204 305.696C262.208 301.276 264 297.038 267.185 293.911C270.371 290.784 274.69 289.023 279.198 289.014ZM277.095 317.294C277.788 317.426 278.492 317.498 279.198 317.511C282.389 317.502 285.448 316.254 287.704 314.04C289.96 311.826 291.23 308.826 291.237 305.696C291.255 305.367 291.217 305.037 291.126 304.719C290.953 302.388 290.071 300.16 288.595 298.325C287.118 296.49 285.114 295.131 282.842 294.424C281.659 294.076 280.432 293.896 279.198 293.89C276.566 293.881 274.004 294.721 271.907 296.279C269.809 297.838 268.292 300.029 267.589 302.516C266.885 305.003 267.035 307.648 268.014 310.043C268.993 312.439 270.748 314.452 273.008 315.774C274.241 316.566 275.636 317.085 277.095 317.294Z" fill="black"/>
<path d="M237.764 289.014C239.883 289.012 241.982 289.415 243.945 290.199C244.363 290.393 244.77 290.611 245.162 290.851C248.192 292.847 250.487 295.745 251.709 299.117C252.932 302.49 253.017 306.158 251.953 309.582C250.888 313.005 248.73 316.003 245.797 318.132C242.864 320.262 239.31 321.411 235.661 321.41C233.773 321.421 231.9 321.09 230.135 320.433C227.324 319.082 224.957 316.985 223.301 314.38C221.646 311.774 220.769 308.766 220.77 305.696C220.774 301.276 222.565 297.038 225.751 293.911C228.937 290.784 233.256 289.023 237.764 289.014ZM235.661 317.294C236.354 317.426 237.058 317.498 237.764 317.511C240.955 317.502 244.013 316.254 246.269 314.04C248.525 311.826 249.796 308.826 249.803 305.696C249.821 305.367 249.783 305.037 249.692 304.719C249.519 302.388 248.637 300.16 247.161 298.325C245.684 296.49 243.68 295.131 241.408 294.424C240.225 294.076 238.998 293.896 237.764 293.89C235.132 293.881 232.57 294.721 230.473 296.279C228.375 297.838 226.858 300.029 226.155 302.516C225.451 305.003 225.601 307.648 226.58 310.043C227.559 312.439 229.314 314.452 231.574 315.774C232.807 316.566 234.202 317.085 235.661 317.294Z" fill="black"/>
</g>
<path d="M318.746 288.037C323.262 288.037 327.593 289.796 330.786 292.928C333.98 296.059 335.774 300.307 335.774 304.736C335.774 309.165 333.98 313.412 330.786 316.544C327.593 319.676 323.262 321.435 318.746 321.435V316.559C321.933 316.533 324.982 315.28 327.235 313.07C329.489 310.86 330.767 307.87 330.793 304.744C330.807 302.641 330.226 300.575 329.113 298.776C328.001 296.978 326.401 295.517 324.493 294.558C322.782 293.474 320.782 292.911 318.746 292.938C317.163 292.932 315.595 293.234 314.132 293.825C312.669 294.417 311.34 295.286 310.22 296.384C309.101 297.481 308.215 298.785 307.612 300.22C307.009 301.654 306.701 303.192 306.707 304.744H301.598C301.597 302.541 302.041 300.359 302.904 298.324C303.766 296.289 305.031 294.442 306.625 292.889C308.219 291.336 310.111 290.108 312.191 289.275C314.271 288.442 316.499 288.021 318.746 288.037Z" fill="url(#paint16_linear_1_206)"/>
<path d="M277.095 288.036C280.003 288.022 282.863 288.768 285.379 290.199C285.797 290.393 286.204 290.61 286.597 290.85C288.905 292.387 290.797 294.454 292.105 296.871C293.414 299.288 294.101 301.982 294.106 304.719H289.142C289.141 302.605 288.554 300.532 287.447 298.719C286.339 296.906 284.75 295.422 282.85 294.424C281.108 293.423 279.123 292.901 277.103 292.913C274.27 292.9 271.523 293.871 269.35 295.654C267.176 297.436 265.715 299.915 265.226 302.652C264.737 305.39 265.25 308.208 266.676 310.609C268.102 313.011 270.348 314.84 273.017 315.774C274.309 316.306 275.702 316.565 277.103 316.534V321.41C275.216 321.421 273.343 321.09 271.578 320.433C268.222 319.331 265.306 317.219 263.244 314.398C261.182 311.577 260.079 308.19 260.092 304.719C260.097 300.297 261.889 296.058 265.077 292.93C268.264 289.803 272.586 288.043 277.095 288.036Z" fill="url(#paint17_linear_1_206)"/>
<path d="M235.444 288.037V292.913C232.273 292.946 229.242 294.204 227.011 296.414C224.779 298.625 223.526 301.609 223.524 304.719C223.51 307.145 224.269 309.514 225.695 311.496C227.12 313.478 229.142 314.974 231.477 315.774C232.733 316.306 234.093 316.566 235.461 316.534C237.044 316.538 238.612 316.236 240.076 315.643C241.539 315.051 242.868 314.181 243.987 313.083C245.106 311.985 245.992 310.681 246.595 309.245C247.198 307.81 247.506 306.272 247.5 304.719H252.608C252.608 306.92 252.165 309.099 251.303 311.131C250.442 313.163 249.179 315.008 247.588 316.56C245.997 318.112 244.109 319.34 242.032 320.174C239.955 321.008 237.731 321.431 235.487 321.419C233.563 321.431 231.653 321.1 229.85 320.442C226.099 319.107 222.945 316.523 220.939 313.141C218.932 309.758 218.201 305.792 218.872 301.935C219.543 298.077 221.574 294.574 224.611 292.035C227.647 289.496 231.497 288.084 235.487 288.045L235.444 288.037Z" fill="url(#paint18_linear_1_206)"/>
<path d="M301.624 304.72C301.605 308.149 302.682 311.497 304.702 314.296C306.722 317.094 309.584 319.203 312.888 320.325C312.999 320.434 313.22 320.542 313.331 320.434C315.057 321.09 316.894 321.422 318.746 321.411V316.535C317.309 316.555 315.883 316.297 314.548 315.775L314.437 315.666C312.166 314.83 310.209 313.334 308.827 311.378C307.446 309.422 306.706 307.099 306.707 304.72H301.624Z" fill="#E6E6E6"/>
<path d="M277.095 316.534V321.41C281.611 321.41 285.942 319.65 289.136 316.519C292.329 313.387 294.123 309.139 294.123 304.71H289.142C289.14 307.844 287.87 310.849 285.612 313.065C283.353 315.282 280.29 316.529 277.095 316.534Z" fill="#E6E6E6"/>
<path d="M235.444 288.036V292.913C237.513 292.885 239.545 293.448 241.293 294.532C243.189 295.497 244.773 296.962 245.867 298.762C246.96 300.561 247.52 302.624 247.483 304.719H252.591C252.586 301.982 251.899 299.288 250.591 296.871C249.282 294.454 247.391 292.387 245.082 290.85C244.662 290.59 244.217 290.372 243.754 290.199C241.23 288.765 238.361 288.018 235.444 288.036Z" fill="#E6E6E6"/>
<path d="M350.573 342.186H426.567V348.418H350.573V342.186Z" fill="url(#paint19_linear_1_206)"/>
<path d="M310.81 358.8H426.567V363.295H310.81V358.8Z" fill="url(#paint20_linear_1_206)"/>
<path d="M310.717 370.051H426.475V374.546H310.717V370.051Z" fill="url(#paint21_linear_1_206)"/>
<path d="M609.768 255.735V293.864C609.79 294.815 610.191 295.72 610.884 296.384C611.578 297.048 612.509 297.42 613.479 297.42H652.274C653.244 297.42 654.175 297.048 654.868 296.384C655.562 295.72 655.963 294.815 655.985 293.864V255.735C655.982 254.77 655.589 253.847 654.894 253.165C654.199 252.483 653.257 252.098 652.274 252.095H613.479C612.496 252.098 611.554 252.483 610.859 253.165C610.164 253.847 609.771 254.77 609.768 255.735Z" fill="#E6E6E6"/>
<path opacity="0.1" d="M626.673 252.095V278.576C626.672 278.9 626.736 279.22 626.862 279.519C626.988 279.818 627.173 280.09 627.406 280.319C627.639 280.547 627.916 280.729 628.221 280.852C628.526 280.975 628.853 281.039 629.183 281.038H655.993V255.735C655.989 254.77 655.597 253.847 654.901 253.165C654.206 252.483 653.264 252.098 652.281 252.095H626.673Z" fill="black"/>
<path d="M631.872 246.947H658.703C660.101 246.947 661.234 248.059 661.234 249.43V275.743C661.234 277.114 660.101 278.225 658.703 278.225H631.872C630.474 278.225 629.34 277.114 629.34 275.743V249.43C629.34 248.059 630.474 246.947 631.872 246.947Z" fill="url(#paint22_linear_1_206)"/>
<path opacity="0.05" d="M456.31 133.412V153.339C456.314 153.675 456.387 154.008 456.524 154.316C456.661 154.624 456.86 154.903 457.108 155.134C457.357 155.366 457.651 155.546 457.972 155.665C458.293 155.783 458.635 155.837 458.978 155.824H489.05V140.906C489.062 139.922 488.874 138.946 488.496 138.034C488.118 137.122 487.558 136.294 486.849 135.598C486.14 134.901 485.296 134.351 484.367 133.979C483.438 133.607 482.442 133.421 481.439 133.432L456.31 133.412Z" fill="black"/>
<path d="M463.663 123.949H499.894C501.316 123.949 502.469 125.079 502.469 126.474V147.895C502.469 149.29 501.316 150.42 499.894 150.42H463.663C462.241 150.42 461.089 149.29 461.089 147.895V126.474C461.089 125.079 462.241 123.949 463.663 123.949Z" fill="url(#paint23_linear_1_206)"/>
<path opacity="0.05" d="M119.933 482.392C127.142 482.392 159.068 482.392 170.685 482.392C171.252 482.389 171.813 482.276 172.335 482.058C172.857 481.841 173.329 481.523 173.724 481.124C174.119 480.726 174.429 480.254 174.636 479.736C174.843 479.218 174.942 478.665 174.928 478.109V429.307C174.928 429.307 155.289 419.894 155.289 434.236C155.289 437.437 155.824 440.972 155.206 444.134C154.177 449.183 144.187 448.517 141.19 446.032C140.377 445.249 139.748 444.301 139.35 443.254C138.951 442.207 138.792 441.087 138.883 439.972C139.088 437.752 139.432 435.546 139.913 433.367C140.098 432.437 140.098 431.48 139.913 430.549C139.702 429.876 139.31 429.271 138.78 428.797C138.249 428.323 137.598 427.997 136.895 427.853C131.561 426.358 125.227 427.55 119.923 428.661C120.709 432.588 121.218 436.563 121.447 440.558C121.571 442.689 121.808 445.113 120.706 447.052C120.366 447.725 119.77 448.24 119.048 448.487C118.385 448.621 117.696 448.573 117.06 448.345C113.97 447.507 110.974 445.8 107.688 445.81C104.197 445.81 101.942 448.345 101.087 451.517C100.351 454.33 100.298 457.274 100.932 460.112C101.222 461.538 101.995 462.827 103.126 463.768C103.968 464.33 104.922 464.71 105.925 464.884C106.928 465.058 107.957 465.022 108.945 464.778C111.828 464.232 114.496 462.859 117.4 462.354C118.224 462.143 119.097 462.208 119.88 462.537C120.663 462.866 121.312 463.441 121.725 464.172C122.239 465.201 122.516 466.328 122.539 467.474C122.827 472.514 121.458 477.534 119.933 482.392Z" fill="black"/>
<path d="M115.752 482.392C122.961 482.392 154.887 482.392 166.504 482.392C167.072 482.389 167.633 482.276 168.155 482.058C168.678 481.841 169.15 481.524 169.546 481.125C169.942 480.726 170.253 480.254 170.461 479.737C170.669 479.219 170.77 478.666 170.758 478.109V429.307C170.758 429.307 151.108 419.894 151.108 434.236C151.108 437.437 151.654 440.972 151.036 444.134C150.006 449.183 140.016 448.517 137.019 446.032C136.204 445.251 135.575 444.302 135.176 443.255C134.777 442.207 134.619 441.087 134.712 439.972C134.917 437.752 135.261 435.546 135.742 433.367C135.933 432.437 135.933 431.479 135.742 430.549C135.535 429.876 135.146 429.27 134.617 428.796C134.087 428.321 133.437 427.995 132.735 427.853C127.4 426.358 121.067 427.55 115.763 428.661C116.543 432.588 117.052 436.563 117.287 440.558C117.4 442.689 117.637 445.113 116.535 447.052C116.197 447.722 115.606 448.237 114.887 448.487C114.221 448.621 113.529 448.572 112.889 448.345C109.8 447.507 106.813 445.8 103.528 445.81C100.037 445.81 97.7811 448.345 96.9263 451.517C96.1872 454.33 96.1307 457.273 96.7615 460.112C97.0548 461.537 97.8272 462.824 98.9551 463.768C99.7972 464.33 100.751 464.71 101.754 464.884C102.757 465.058 103.786 465.022 104.774 464.778C107.668 464.232 110.335 462.859 113.239 462.354C114.062 462.142 114.934 462.206 115.716 462.536C116.497 462.865 117.144 463.441 117.555 464.172C118.072 465.2 118.35 466.328 118.368 467.474C118.708 472.514 117.287 477.534 115.752 482.392Z" fill="url(#paint24_linear_1_206)"/>
<path d="M201.283 407.28C201.283 418.056 201.283 465.515 201.283 482.826C201.286 483.672 201.46 484.508 201.797 485.287C202.133 486.065 202.624 486.77 203.242 487.36C203.86 487.95 204.591 488.412 205.394 488.721C206.196 489.03 207.054 489.179 207.915 489.159H283.456C283.456 489.159 298.039 459.869 275.835 459.869C270.882 459.869 265.413 460.677 260.511 459.758C252.632 458.284 253.734 443.346 257.586 438.892C259.811 436.306 263.518 435.377 266.968 435.458C270.418 435.539 273.786 436.468 277.205 436.983C278.64 437.261 280.116 437.261 281.551 436.983C282.595 436.674 283.535 436.095 284.271 435.305C285.007 434.516 285.512 433.546 285.732 432.499C288.05 424.55 286.206 415.127 284.476 407.249C278.397 408.407 272.245 409.163 266.062 409.512C262.766 409.693 259.018 410.037 256.021 408.401C254.978 407.894 254.177 407.011 253.786 405.936C253.585 404.949 253.66 403.926 254.002 402.977C255.31 398.361 257.946 393.887 257.936 389.029C257.936 383.828 254.023 380.475 249.11 379.202C244.754 378.106 240.197 378.026 235.804 378.97C233.594 379.398 231.597 380.548 230.14 382.232C228.245 384.605 228.08 387.918 228.616 390.888C229.46 395.19 231.572 399.169 232.365 403.482C232.838 406.118 232.045 408.532 229.553 409.926C227.947 410.69 226.189 411.1 224.404 411.128C216.546 411.663 208.801 409.562 201.283 407.28Z" fill="#689F38"/>
<path d="M166.731 306.726C152.961 306.726 92.3532 306.726 70.2522 306.726C69.1737 306.731 68.1071 306.946 67.1144 307.36C66.1218 307.773 65.223 308.377 64.4705 309.134C63.718 309.892 63.1268 310.789 62.7315 311.773C62.3361 312.757 62.1445 313.809 62.1677 314.866V407.653C62.1677 407.653 99.5212 425.56 99.5212 398.291C99.5212 392.231 98.4913 385.494 99.6654 379.465C101.55 369.789 120.613 371.142 126.308 375.869C129.614 378.616 130.798 383.161 130.695 387.403C130.592 391.645 129.387 395.776 128.739 399.967C128.383 401.731 128.383 403.546 128.739 405.31C129.429 408.057 131.828 409.704 134.465 410.441C144.609 413.279 156.638 411.027 166.72 408.906C165.241 401.436 164.275 393.878 163.826 386.282C163.6 382.242 163.157 377.626 165.247 373.95C165.877 372.68 166.985 371.699 168.337 371.213C169.601 370.962 170.911 371.053 172.127 371.476C178.018 373.071 183.682 376.313 189.934 376.313C196.576 376.313 200.86 371.496 202.477 365.466C203.881 360.118 203.986 354.521 202.786 349.125C202.25 346.417 200.798 343.966 198.667 342.166C195.577 339.833 191.396 339.58 187.616 340.287C182.117 341.297 177.04 343.933 171.53 344.893C168.162 345.489 165.021 344.509 163.291 341.449C162.315 339.49 161.787 337.346 161.746 335.167C161.138 325.501 163.826 315.967 166.731 306.726Z" fill="#26A69A"/>
<path opacity="0.05" d="M229.141 217.797C229.141 224.564 229.141 254.378 229.141 265.266C229.16 266.325 229.602 267.335 230.373 268.077C231.143 268.819 232.18 269.235 233.26 269.235H280.717C280.717 269.235 289.872 250.874 275.928 250.874C272.838 250.874 269.378 251.369 266.299 250.793C261.345 249.874 262.045 240.491 264.455 237.663C265.219 236.904 266.144 236.318 267.163 235.947C268.182 235.575 269.272 235.427 270.356 235.512C272.518 235.717 274.664 236.055 276.783 236.522C277.684 236.699 278.611 236.699 279.512 236.522C280.168 236.326 280.758 235.961 281.222 235.465C281.685 234.97 282.005 234.362 282.148 233.704C283.59 228.715 282.437 222.796 281.355 217.837C277.534 218.564 273.666 219.04 269.78 219.261C267.72 219.372 265.361 219.584 263.477 218.554C262.821 218.24 262.317 217.685 262.076 217.009C261.951 216.389 261.997 215.747 262.21 215.151C263.034 212.252 264.692 209.464 264.682 206.394C264.682 203.122 262.22 201.021 259.131 200.223C256.397 199.532 253.536 199.48 250.779 200.071C249.393 200.334 248.139 201.045 247.215 202.091C246.678 202.882 246.315 203.773 246.15 204.709C245.985 205.645 246.022 206.604 246.257 207.525C246.793 210.232 248.121 212.727 248.616 215.443C248.819 216.213 248.756 217.027 248.438 217.758C248.119 218.489 247.562 219.096 246.855 219.483C245.852 219.961 244.756 220.22 243.642 220.241C238.75 220.544 233.868 219.221 229.141 217.797Z" fill="black"/>
<path d="M231.273 217.796C231.273 224.563 231.273 254.378 231.273 265.266C231.292 266.325 231.734 267.334 232.505 268.077C233.275 268.819 234.312 269.235 235.392 269.235H282.849C282.849 269.235 292.004 250.873 278.06 250.873C274.97 250.873 271.52 251.368 268.431 250.793C263.477 249.874 264.177 240.491 266.597 237.663C267.36 236.904 268.282 236.318 269.3 235.947C270.317 235.575 271.406 235.427 272.488 235.512C274.653 235.718 276.803 236.055 278.925 236.522C279.826 236.698 280.753 236.698 281.654 236.522C282.309 236.326 282.899 235.961 283.361 235.465C283.823 234.97 284.14 234.361 284.28 233.704C285.732 228.714 284.579 222.796 283.487 217.837C279.669 218.564 275.805 219.04 271.922 219.261C269.862 219.372 267.493 219.584 265.609 218.554C264.955 218.237 264.452 217.683 264.208 217.009C264.081 216.388 264.131 215.745 264.352 215.15C265.166 212.252 266.824 209.464 266.814 206.394C266.814 203.121 264.352 201.021 261.273 200.223C258.536 199.532 255.672 199.48 252.91 200.071C251.529 200.336 250.278 201.047 249.357 202.091C248.822 202.89 248.466 203.791 248.313 204.735C248.16 205.679 248.214 206.644 248.472 207.565C248.997 210.272 250.325 212.767 250.82 215.484C251.025 216.253 250.963 217.068 250.644 217.799C250.325 218.531 249.768 219.137 249.059 219.524C248.057 220.003 246.96 220.261 245.845 220.281C240.871 220.544 235.99 219.221 231.273 217.796Z" fill="url(#paint25_linear_1_206)"/>
<path d="M54.4542 438.155C54.4542 443.356 54.4542 466.242 54.4542 474.595C54.4539 475.002 54.5372 475.404 54.6988 475.778C54.8605 476.153 55.0973 476.491 55.3952 476.774C55.6931 477.057 56.046 477.278 56.4328 477.424C56.8197 477.57 57.2324 477.638 57.6468 477.625H94.0939C94.0939 477.625 101.118 463.485 90.4173 463.485C88.028 463.485 85.3915 463.869 83.0228 463.425C79.2226 462.718 79.7478 455.506 81.6119 453.325C82.1958 452.741 82.9034 452.29 83.6847 452.004C84.4659 451.717 85.3017 451.603 86.133 451.668C87.7948 451.814 89.4458 452.06 91.0764 452.406C91.756 452.542 92.4566 452.542 93.1362 452.406C93.6479 452.264 94.1102 451.988 94.4733 451.607C94.8364 451.226 95.0863 450.755 95.1959 450.244C96.3082 446.416 95.4224 441.872 94.5882 438.054C91.6578 438.617 88.6919 438.985 85.7107 439.155C84.1144 439.235 82.3122 439.407 80.8601 438.619C80.3753 438.364 80.0073 437.938 79.8302 437.428C79.731 436.949 79.7666 436.453 79.9332 435.993C80.5614 433.771 81.8384 431.63 81.8281 429.267C81.8178 426.904 79.9435 425.146 77.5748 424.53C75.4741 424.004 73.277 423.966 71.1586 424.419C70.0902 424.626 69.1247 425.181 68.4193 425.995C68.0031 426.599 67.7227 427.284 67.5966 428.003C67.4705 428.722 67.5017 429.459 67.688 430.166C68.0896 432.246 69.1092 434.206 69.4903 436.226C69.6468 436.816 69.5994 437.441 69.3552 438.002C69.1111 438.563 68.6841 439.029 68.1412 439.326C67.3713 439.698 66.5273 439.898 65.6695 439.912C61.8281 440.266 58.0896 439.246 54.4542 438.155Z" fill="#E6E6E6"/>
<path d="M288.585 243.944H295.021V247.095H288.585V243.944Z" fill="url(#paint26_linear_1_206)"/>
<path d="M306.907 247.106H318.781V243.925H306.907V247.106ZM330.666 247.106H342.551V243.925H330.666V247.106ZM354.435 247.106H366.31V243.925H354.435V247.106ZM378.194 247.106H390.079V243.925H378.236L378.194 247.106Z" fill="url(#paint27_linear_1_206)"/>
<path d="M401.964 243.944H408.4V247.095H401.964V243.944Z" fill="url(#paint28_linear_1_206)"/>
<path d="M433.323 230.037H554.281C557.193 230.037 559.554 232.352 559.554 235.208V303.988C559.554 306.844 557.193 309.159 554.281 309.159H433.323C430.411 309.159 428.05 306.844 428.05 303.988V235.208C428.05 232.352 430.411 230.037 433.323 230.037Z" fill="#E6E6E6"/>
<path opacity="0.05" d="M428.081 300.292V304.039C428.085 304.717 428.226 305.387 428.495 306.011C428.764 306.635 429.156 307.201 429.649 307.676C430.142 308.151 430.726 308.526 431.367 308.779C432.008 309.031 432.694 309.158 433.385 309.15H554.25C554.941 309.158 555.626 309.031 556.267 308.778C556.907 308.525 557.49 308.151 557.982 307.676C558.475 307.2 558.866 306.635 559.134 306.01C559.402 305.386 559.541 304.716 559.544 304.039V300.292H428.081Z" fill="black"/>
<path d="M471.047 328.016H507.34C507.34 327.196 507.008 326.41 506.417 325.83C505.826 325.251 505.024 324.925 504.189 324.925H474.199C473.363 324.925 472.561 325.251 471.97 325.83C471.379 326.41 471.047 327.196 471.047 328.016Z" fill="#E6E6E6"/>
<path d="M481.913 319.108H496.475V324.895H481.913V319.108Z" fill="#CCCCCC"/>
<path d="M484.796 309.2H499.358L496.475 319.108H481.912L484.796 309.2Z" fill="#E6E6E6"/>
<path d="M493.817 306.705C492.703 306.705 491.799 305.819 491.799 304.726C491.799 303.632 492.703 302.746 493.817 302.746C494.932 302.746 495.836 303.632 495.836 304.726C495.836 305.819 494.932 306.705 493.817 306.705Z" fill="url(#paint29_linear_1_206)"/>
<path d="M428.061 235.209V242.41H559.554V235.209C559.561 234.528 559.43 233.852 559.167 233.222C558.904 232.591 558.516 232.019 558.025 231.537C557.534 231.056 556.95 230.675 556.307 230.417C555.665 230.16 554.976 230.031 554.281 230.037H433.333C432.639 230.029 431.949 230.158 431.306 230.415C430.662 230.672 430.078 231.052 429.586 231.534C429.095 232.016 428.707 232.589 428.445 233.22C428.183 233.851 428.052 234.527 428.061 235.209Z" fill="url(#paint30_linear_1_206)"/>
<path d="M549.111 236.218C549.109 236.522 549.199 236.82 549.37 237.074C549.541 237.327 549.785 237.526 550.071 237.643C550.356 237.761 550.671 237.793 550.976 237.735C551.28 237.677 551.56 237.531 551.78 237.317C552 237.103 552.15 236.829 552.211 236.531C552.273 236.233 552.242 235.924 552.124 235.643C552.006 235.362 551.805 235.121 551.548 234.952C551.29 234.783 550.987 234.693 550.677 234.693C550.263 234.693 549.867 234.853 549.574 235.139C549.28 235.425 549.114 235.813 549.111 236.218Z" fill="#F2F2F2"/>
<path d="M543.179 236.218C543.177 236.522 543.267 236.82 543.438 237.074C543.609 237.327 543.853 237.526 544.138 237.643C544.424 237.761 544.739 237.793 545.044 237.735C545.348 237.677 545.628 237.531 545.848 237.317C546.068 237.103 546.218 236.829 546.279 236.531C546.34 236.233 546.31 235.924 546.192 235.643C546.074 235.362 545.873 235.121 545.615 234.952C545.358 234.783 545.055 234.693 544.745 234.693C544.331 234.693 543.935 234.853 543.641 235.139C543.348 235.425 543.182 235.813 543.179 236.218Z" fill="#F2F2F2"/>
<path d="M537.257 236.218C537.255 236.522 537.346 236.821 537.517 237.075C537.688 237.329 537.932 237.527 538.219 237.644C538.505 237.762 538.821 237.793 539.126 237.734C539.43 237.675 539.71 237.529 539.93 237.314C540.149 237.098 540.299 236.824 540.359 236.525C540.419 236.226 540.387 235.917 540.267 235.636C540.147 235.355 539.945 235.115 539.686 234.947C539.427 234.78 539.123 234.691 538.813 234.693C538.401 234.696 538.007 234.857 537.716 235.143C537.425 235.428 537.26 235.814 537.257 236.218Z" fill="#F2F2F2"/>
<path d="M511.913 258.337H550.677V275.911H511.913V258.337Z" fill="#F2F2F2"/>
<path d="M474.6 269.568H494.806V289.384H474.6V269.568Z" fill="#F2F2F2"/>
<path d="M487.844 262.751H501.758V276.396H487.844V262.751Z" fill="url(#paint31_linear_1_206)"/>
<path d="M433.982 262.862H462.489V300.292H433.982V262.862Z" fill="#F2F2F2"/>
<path d="M503.756 292.151H538.812V300.292H503.756V292.151Z" fill="#F2F2F2"/>
<path d="M511.913 281.577H535.363V283.809H511.913V281.577Z" fill="url(#paint32_linear_1_206)"/>
<path d="M511.912 285.233H525.702V286.829H511.912V285.233Z" fill="url(#paint33_linear_1_206)"/>
<path d="M511.912 287.788H525.702V289.384H511.912V287.788Z" fill="url(#paint34_linear_1_206)"/>
<path d="M484.271 324.925H546.228C546.705 324.925 547.093 325.305 547.093 325.774V327.167C547.093 327.636 546.705 328.016 546.228 328.016H484.271C483.793 328.016 483.406 327.636 483.406 327.167V325.774C483.406 325.305 483.793 324.925 484.271 324.925Z" fill="#B3B3B3"/>
<path d="M415.774 238.451H474.188C474.848 238.451 475.383 238.975 475.383 239.622V247.298C475.383 247.945 474.848 248.47 474.188 248.47H415.774C415.114 248.47 414.579 247.945 414.579 247.298V239.622C414.579 238.975 415.114 238.451 415.774 238.451Z" fill="#F2F2F2"/>
<path d="M414.621 239.602V247.308C414.621 247.619 414.747 247.917 414.971 248.137C415.195 248.356 415.499 248.48 415.816 248.48H424.786V238.38H415.816C415.654 238.38 415.494 238.412 415.346 238.474C415.198 238.536 415.064 238.626 414.952 238.741C414.84 238.855 414.754 238.99 414.697 239.138C414.64 239.286 414.614 239.444 414.621 239.602Z" fill="url(#paint35_linear_1_206)"/>
<path opacity="0.15" d="M424.786 238.42H425.939V248.479H424.786V238.42Z" fill="black"/>
<path d="M408.493 251.823L411.397 248.975C411.446 248.926 411.509 248.895 411.578 248.884C411.646 248.873 411.716 248.883 411.778 248.914L412.52 248.197C411.875 247.328 411.567 246.263 411.65 245.191C411.733 244.12 412.202 243.112 412.973 242.349L413.086 242.248C413.722 241.664 414.514 241.271 415.37 241.112C416.225 240.954 417.109 241.038 417.918 241.355C418.727 241.672 419.427 242.208 419.936 242.901C420.445 243.593 420.743 244.414 420.793 245.266C420.844 246.119 420.647 246.968 420.223 247.714C419.8 248.46 419.169 249.073 418.403 249.48C417.638 249.887 416.77 250.072 415.901 250.013C415.033 249.954 414.199 249.653 413.498 249.146L413.086 249.55L412.757 249.884C412.789 249.944 412.801 250.013 412.79 250.081C412.779 250.148 412.745 250.21 412.695 250.257L409.791 253.105C409.759 253.137 409.721 253.162 409.68 253.179C409.638 253.196 409.594 253.205 409.549 253.205C409.504 253.205 409.459 253.196 409.417 253.179C409.376 253.162 409.338 253.137 409.307 253.105L408.493 252.307C408.458 252.277 408.43 252.24 408.411 252.198C408.391 252.156 408.381 252.111 408.381 252.065C408.381 252.019 408.391 251.974 408.411 251.932C408.43 251.89 408.458 251.853 408.493 251.823ZM413.086 246.157C413.247 246.91 413.686 247.578 414.32 248.032C414.954 248.486 415.737 248.694 416.517 248.615C417.298 248.536 418.021 248.175 418.547 247.604C419.072 247.032 419.363 246.29 419.363 245.52C419.363 244.751 419.072 244.008 418.547 243.437C418.021 242.865 417.298 242.505 416.517 242.426C415.737 242.347 414.954 242.554 414.32 243.008C413.686 243.462 413.247 244.131 413.086 244.884C412.994 245.304 412.994 245.737 413.086 246.157Z" fill="url(#paint36_linear_1_206)"/>
<path d="M571.851 332.51L542.634 445.326C542.479 445.624 542.226 445.864 541.916 446.005C541.606 446.146 541.257 446.18 540.924 446.103C540.141 446.002 539.626 445.487 539.771 444.952L567.217 331.904C567.46 331.418 567.865 331.026 568.364 330.794C568.863 330.561 569.428 330.5 569.967 330.622C571.244 330.783 572.098 331.632 571.861 332.49L571.851 332.51Z" fill="#B3B3B3"/>
<path d="M342.499 331.652C342.521 332.129 342.64 332.597 342.847 333.03C343.055 333.462 343.347 333.85 343.708 334.171C344.069 334.492 344.491 334.739 344.949 334.9C345.408 335.061 345.895 335.131 346.381 335.106H600.183C600.677 335.159 601.177 335.109 601.651 334.959C602.124 334.809 602.56 334.564 602.931 334.238C603.301 333.912 603.597 333.513 603.799 333.068C604.002 332.622 604.107 332.14 604.107 331.652C604.107 331.164 604.002 330.682 603.799 330.236C603.597 329.791 603.301 329.392 602.931 329.066C602.56 328.741 602.124 328.495 601.651 328.345C601.177 328.196 600.677 328.145 600.183 328.198H346.381C345.895 328.173 345.408 328.244 344.949 328.404C344.491 328.565 344.069 328.813 343.708 329.134C343.347 329.454 343.055 329.842 342.847 330.274C342.64 330.707 342.521 331.175 342.499 331.652Z" fill="#696969"/>
<path d="M579.06 332.581L600.769 449.648C600.902 449.955 601.142 450.205 601.446 450.353C601.75 450.502 602.098 450.538 602.428 450.456C603.221 450.345 603.766 449.81 603.653 449.254L583.746 331.955C583.571 331.056 582.376 330.46 581.089 330.622C579.801 330.783 578.895 331.632 579.029 332.561L579.06 332.581Z" fill="#CCCCCC"/>
<path d="M332.561 444.992C332.417 445.507 332.849 446.002 333.714 446.144C334.048 446.2 334.391 446.158 334.7 446.021C335.008 445.884 335.268 445.659 335.444 445.376L363.941 335.106H359.193L332.561 444.992Z" fill="#B3B3B3"/>
<path d="M371.829 332.581L393.518 449.648C393.651 449.955 393.891 450.205 394.195 450.353C394.499 450.502 394.847 450.538 395.177 450.456C395.97 450.345 396.515 449.81 396.402 449.254L376.495 331.955C376.32 331.056 375.125 330.46 373.838 330.622C372.55 330.783 371.644 331.632 371.778 332.561L371.829 332.581Z" fill="#CCCCCC"/>
<path d="M615.486 298.898C612.592 301.787 606.434 302.938 603.354 303.393C603.363 301.779 603.235 300.168 602.973 298.575L612.407 295.353C612.211 296.323 613.56 297.282 615.486 298.898Z" fill="white"/>
<path d="M617.598 286.788C616.898 289.676 615.707 292.428 614.076 294.929L613.499 295.04L612.469 295.353L603.035 298.575L602.747 298.676C602.33 298.905 601.872 299.053 601.398 299.11C600.511 299.262 599.597 299.137 598.786 298.753C597.975 298.369 597.307 297.745 596.877 296.969C596.588 296.695 596.388 296.344 596.3 295.959L596.104 295.424L595.136 292.848C594.375 293.355 593.457 293.584 592.541 293.495C591.676 291.99 591.511 288.031 591.192 283.314L589.462 278.921L588.689 276.991C588.064 275.474 588.012 273.787 588.543 272.236C589.073 270.684 590.152 269.369 591.583 268.528L607.268 260.812L617.598 286.788Z" fill="white"/>
<path d="M618.463 290.96C617.598 294.182 612.788 296.01 612.407 295.353C610.77 293.111 605.95 284.314 607.402 280.678C609.029 276.386 603.643 274.891 602.973 280.678C602.899 281.88 602.671 283.068 602.294 284.213V284.314C602.397 285.93 603.066 290.748 603.262 294.505C603.3 295.761 603.203 297.016 602.973 298.252C602.901 298.408 602.804 298.551 602.685 298.676C602.268 298.906 601.81 299.053 601.336 299.111C600.449 299.262 599.535 299.137 598.724 298.753C597.913 298.369 597.245 297.745 596.815 296.969C596.526 296.695 596.326 296.344 596.238 295.959L596.042 295.424C596.042 295.424 599.132 295.101 599.41 293.283C599.688 291.465 601.243 286.526 601.048 284.708V284.496C600.206 282.215 599.656 279.84 599.41 277.426C599.029 275.073 594.261 280.456 589.4 278.931C589.071 278.909 588.748 278.837 588.442 278.719C588.442 278.719 586.609 278.285 585.939 274.679C584.683 268.245 589.307 269.205 593.056 266.599C599.699 262.095 600.368 261.771 602.397 260.6C604.426 259.428 611.82 257.277 616.537 267.023C619.524 273.386 620.1 284.961 618.463 290.96Z" fill="#696969"/>
<path d="M518.586 490.361L543.921 483.857C546.104 483.301 547.567 481.372 547.186 479.544L545.816 472.928C545.704 472.533 545.442 472.196 545.084 471.985C544.725 471.774 544.298 471.707 543.89 471.797L534.189 473.151C532.283 473.433 530.498 474.239 529.039 475.474L516.238 486.321C515.883 486.597 515.609 486.96 515.445 487.373C515.28 487.787 515.23 488.236 515.301 488.674C515.393 489.003 515.553 489.31 515.771 489.576C515.989 489.842 516.261 490.06 516.569 490.219C516.877 490.377 517.216 490.471 517.563 490.496C517.91 490.52 518.258 490.474 518.586 490.361Z" fill="black"/>
<path d="M566.3 478.978L585.301 461.465C586.938 459.95 587.443 457.617 586.424 456.253L582.726 451.284C582.593 451.147 582.434 451.038 582.257 450.964C582.08 450.89 581.889 450.851 581.696 450.851C581.504 450.851 581.313 450.89 581.136 450.964C580.959 451.038 580.799 451.147 580.667 451.284L572.953 457.031C571.409 458.191 570.196 459.722 569.431 461.475L562.767 476.766C562.572 477.149 562.479 477.574 562.497 478.001C562.515 478.429 562.643 478.845 562.87 479.21C563.612 480.14 565.126 480.059 566.3 478.978Z" fill="black"/>
<path d="M612.016 388.16L550.1 394.917L544.116 395.624L536.042 396.634L534.044 396.836L533.231 396.937L533.498 398.856L534.219 404.411L543.261 471.787C543.461 472.897 543.233 474.041 542.622 474.996C542.012 475.951 541.062 476.65 539.956 476.958L536.732 477.645C536.187 477.737 535.628 477.72 535.089 477.595C534.55 477.47 534.043 477.24 533.597 476.918C533.151 476.597 532.775 476.191 532.493 475.724C532.211 475.257 532.027 474.739 531.954 474.201L517.896 408.148L515.898 398.856C515.413 395.86 515.583 392.797 516.397 389.87C517.21 386.943 518.647 384.219 520.615 381.878C521.517 380.872 522.521 379.958 523.612 379.151C524.867 378.218 526.255 377.47 527.731 376.929C528.401 376.65 529.089 376.414 529.791 376.222L530.821 376.02L532.819 375.515L540.718 373.495L554.6 369.96L572.469 365.517L612.016 388.16Z" fill="#2D2D2D"/>
<path d="M579.358 455.94L576.598 457.819C576.158 458.117 575.659 458.32 575.134 458.417C574.608 458.514 574.068 458.502 573.548 458.381C573.027 458.26 572.539 458.033 572.113 457.715C571.688 457.398 571.335 456.996 571.078 456.536L533.529 398.856L533.261 396.937L534.075 396.836L536.073 396.634L544.147 395.624L550.131 394.917L580.759 449.698C581.318 450.733 581.484 451.928 581.227 453.071C580.97 454.215 580.308 455.231 579.358 455.94Z" fill="#2D2D2D"/>
<path d="M594.683 339.247L590.141 345.61L588.422 348.135C587.628 349.219 586.779 350.264 585.878 351.266C584.26 352.979 582.359 354.413 580.255 355.507C580.048 355.698 579.797 355.837 579.523 355.911L534.889 374.808C533.715 376.02 530.079 376.323 525.816 378.04C520.285 380.262 518.287 388.241 516.743 385.11C515.198 381.979 519.554 375.313 524.549 371.98C527.639 369.859 529.698 369.152 531.171 369.152L574.714 344.297C575.81 343.649 576.791 342.83 577.618 341.873C578.07 341.377 578.467 340.835 578.803 340.257L580.44 337.732L585.157 330.258L590.873 335.712L594.683 339.247Z" fill="white"/>
<path d="M601.717 317.926L595.662 321.764L593.334 323.309C592.279 323.961 591.185 324.552 590.059 325.077C588.003 325.963 585.803 326.486 583.561 326.622C583.306 326.709 583.034 326.733 582.768 326.693L541.14 326.026C539.688 326.632 536.166 325.481 531.655 325.329C525.806 325.117 521.707 331.389 521.12 328.016C520.533 324.643 526.495 320.471 532.139 319.482C535.641 318.815 537.814 319.017 539.184 319.583L581.408 314.533C582.599 314.392 583.756 314.051 584.827 313.523C585.385 313.249 585.908 312.91 586.383 312.513L588.628 310.917L595.528 306.877L599.06 313.26L601.717 317.926Z" fill="white"/>
<path d="M614.786 392.625H588.947C564.23 396.665 568.04 365.577 568.04 365.577C572.573 362.786 576.684 359.387 580.255 355.477C582.358 354.427 584.25 353.01 585.837 351.296C586.764 350.273 587.634 349.201 588.442 348.084L590.172 345.62L594.693 339.297L590.842 335.763L585.167 330.299L584.137 329.289L594.343 313.21L589.194 309.503L600.636 303.655L610.141 299.615C612.418 299.634 614.67 300.069 616.784 300.898C622.078 303.039 627.176 307.968 629.39 317.401C634.446 339.085 614.786 392.625 614.786 392.625Z" fill="#015B4E"/>
<path d="M531.171 369.162L534.508 375.111L535.61 374.515L532.726 368.274L533.385 367.9C533.385 367.9 533.179 367.334 532.119 367.9C531.058 368.465 530.409 368.869 531.171 369.162Z" fill="#696969"/>
<path d="M614.889 297.696L616.341 300.656L599.812 307.412L601.336 301.767L610.09 299.11L614.889 297.696Z" fill="#027D6B"/>
<path d="M348.863 318.663V325.359H347.833V327.48C347.833 327.724 347.932 327.958 348.108 328.13C348.284 328.303 348.522 328.399 348.771 328.399H393.055C393.747 328.397 394.41 328.125 394.898 327.644C395.386 327.164 395.661 326.513 395.661 325.834V318.189C395.653 317.516 395.374 316.874 394.887 316.401C394.399 315.929 393.741 315.664 393.055 315.664H348.771C348.522 315.664 348.284 315.76 348.108 315.933C347.932 316.105 347.833 316.339 347.833 316.583V318.663H348.863Z" fill="url(#paint37_linear_1_206)"/>
<path d="M348.863 318.664V325.36H390.212C390.894 325.357 391.546 325.09 392.026 324.617C392.507 324.143 392.777 323.503 392.777 322.835V321.189C392.777 320.521 392.507 319.88 392.026 319.407C391.546 318.933 390.894 318.666 390.212 318.664H348.863Z" fill="#E6E6E6"/>
<path d="M344.785 305.847V312.543H343.755V314.623C343.755 314.867 343.854 315.101 344.03 315.273C344.206 315.446 344.444 315.543 344.693 315.543H388.977C389.671 315.543 390.336 315.272 390.827 314.791C391.317 314.31 391.593 313.658 391.593 312.977V305.332C391.582 304.658 391.302 304.016 390.812 303.544C390.323 303.071 389.664 302.807 388.977 302.807H344.693C344.444 302.807 344.206 302.903 344.03 303.076C343.854 303.248 343.755 303.482 343.755 303.726V305.847H344.785Z" fill="url(#paint38_linear_1_206)"/>
<path d="M344.785 305.847V312.543H386.134C386.817 312.543 387.472 312.277 387.955 311.803C388.438 311.33 388.709 310.688 388.709 310.018V308.372C388.709 307.702 388.438 307.06 387.955 306.586C387.472 306.113 386.817 305.847 386.134 305.847H344.785Z" fill="#E6E6E6"/>
<path d="M348.863 293.04V299.736H347.833V301.857C347.833 302.101 347.932 302.335 348.108 302.507C348.284 302.68 348.522 302.776 348.771 302.776H393.055C393.747 302.774 394.41 302.502 394.898 302.022C395.386 301.541 395.661 300.89 395.661 300.211V292.565C395.653 291.893 395.374 291.251 394.887 290.778C394.399 290.306 393.741 290.04 393.055 290.041H348.771C348.522 290.041 348.284 290.137 348.108 290.31C347.932 290.482 347.833 290.716 347.833 290.96V293.081L348.863 293.04Z" fill="url(#paint39_linear_1_206)"/>
<path d="M348.863 293.041V299.737H390.212C390.894 299.734 391.546 299.467 392.026 298.994C392.507 298.52 392.777 297.88 392.777 297.212V295.565C392.777 294.898 392.507 294.257 392.026 293.784C391.546 293.31 390.894 293.043 390.212 293.041H348.863Z" fill="#E6E6E6"/>
<path d="M45.6696 473.787L26.0197 459.9C25.2177 459.388 24.6371 458.604 24.3899 457.697C24.1427 456.791 24.2463 455.827 24.6808 454.991L28.1413 449.466C28.3612 449.147 28.7008 448.925 29.0864 448.849C29.4721 448.774 29.8726 448.85 30.201 449.062L38.1 453.355C39.6791 454.223 40.9644 455.526 41.7972 457.102L49.0682 470.949C49.2765 471.318 49.3857 471.734 49.3857 472.156C49.3857 472.578 49.2765 472.993 49.0682 473.363C48.8819 473.62 48.6431 473.837 48.3669 473.999C48.0908 474.162 47.7832 474.266 47.4638 474.306C47.1444 474.346 46.8199 474.32 46.5111 474.231C46.2023 474.142 45.9157 473.99 45.6696 473.787Z" fill="black"/>
<path d="M168.007 427.57L143.939 425.106C142.983 425.05 142.081 424.65 141.407 423.983C140.732 423.316 140.332 422.428 140.283 421.49L140.489 415.016C140.518 414.633 140.7 414.276 140.995 414.023C141.289 413.77 141.674 413.64 142.065 413.663L151.097 413.531C152.922 413.505 154.715 414.011 156.246 414.986L169.573 423.449C169.942 423.669 170.248 423.977 170.463 424.344C170.677 424.712 170.793 425.127 170.798 425.55C170.768 425.87 170.668 426.179 170.507 426.459C170.346 426.738 170.127 426.981 169.863 427.172C169.6 427.362 169.299 427.496 168.979 427.565C168.659 427.634 168.328 427.635 168.007 427.57Z" fill="black"/>
<path d="M99.3258 324.865L148.193 339.429L148.78 339.6C151.632 340.616 154.142 342.387 156.029 344.718C157.916 347.048 159.107 349.846 159.47 352.801C159.614 358.659 159.027 359.497 158.852 363.082L157.174 380.747L153.826 416.097L143.425 415.622L140.243 380.151V361.164C140.243 358.861 88.543 350.054 88.543 350.054L99.3258 324.865Z" fill="url(#paint40_linear_1_206)"/>
<path d="M115.268 327.419L79.7478 392.392C75.8549 402.047 72.5387 404.976 69.3153 410.491L58.8002 426.014L38.2028 456.92L29.243 451.93L45.8651 418.601L53.826 402.229C56.2771 396.997 60.0979 389.544 60.3039 387.736L60.7982 386.726L72.1268 348.771C71.5912 348.538 71.5912 348.538 71.9826 348.397C71.3544 337.348 71.1483 319.198 78.8827 315.067C89.9847 309.31 100.263 322.501 104.145 324.571C104.671 324.814 104.434 325.329 103.939 326.379L115.268 327.419Z" fill="url(#paint41_linear_1_206)"/>
<path d="M156.679 239.501C153.322 241.147 150.273 241.521 149.614 245.682C148.584 249.964 131.911 242.117 138.142 239.865C144.372 237.612 143.528 232.047 143.528 232.047C145.701 234.3 153.62 238.43 156.679 239.501Z" fill="#E6E6E6"/>
<path d="M138.698 273.79C138.698 273.79 165.001 277.355 178.76 268.932C178.76 268.932 228.523 242.945 228.492 240.965C228.297 229.27 230.027 229.805 228.492 224.644C225.269 224.139 226.113 234.744 221.5 237.42L180.305 253.873C167.545 260.205 146.947 255.782 146.947 255.782L138.698 273.79Z" fill="white"/>
<path d="M76.7203 316.855C80.675 320.613 89.3671 324.935 97.8327 328.137C102.576 330.015 107.485 331.461 112.498 332.46C113.981 332.805 115.526 332.805 117.009 332.46C117.859 332.097 118.597 331.522 119.151 330.793C126.154 322.713 137.689 289.737 152.9 268.598C153.353 267.942 153.93 267.275 154.362 266.578C157.071 263.033 157.184 258.832 155.608 254.852C154.397 251.361 152.345 248.208 149.625 245.662V245.551C146.791 242.671 143.315 240.476 139.47 239.137C137.469 238.518 135.334 238.442 133.291 238.915C122.797 241.945 111.509 248.005 110.047 257.731C108.584 267.457 86.2363 305.089 75.9685 310.957C73.4557 312.432 74.125 314.532 76.7203 316.855Z" fill="url(#paint42_linear_1_206)"/>
<path d="M173.291 219.008C173.357 219.252 173.328 219.511 173.209 219.735C172.976 219.841 172.793 220.029 172.694 220.26C171.875 220.672 171.114 221.184 170.428 221.785L169.8 222.008L170.685 232.845L166.896 233.178C166.39 233.904 165.814 234.581 165.176 235.198C162.622 237.864 159.676 241.369 155.773 241.399C154.457 241.522 153.132 241.277 151.952 240.692C149.514 239.896 147.301 238.547 145.495 236.753C144.925 236.183 144.44 235.537 144.053 234.834L143.94 234.521C143.136 232.38 145.814 227.219 148.399 225.593C148.905 225.135 149.505 224.791 150.16 224.583C150.469 224.472 150.479 221.674 150.562 220.947C150.644 220.22 151.396 217.503 152.879 217.665C153.621 217.745 153.744 218.048 153.971 218.675C154.85 220.2 155.574 221.807 156.133 223.472C156.36 224.088 157.4 226.845 158.306 225.492C159.223 221.321 159.717 216.958 162.58 214.18C163.209 213.948 166.514 215.19 166.947 215.382C168.502 215.847 172.869 217.049 173.291 219.008Z" fill="#E6E6E6"/>
<path d="M173.219 219.887C173.341 219.66 173.37 219.397 173.302 219.15C172.92 217.2 168.564 215.988 166.957 215.524C166.535 215.332 163.219 214.09 162.591 214.322C159.728 217.099 159.244 221.463 158.327 225.634C157.421 227.007 156.381 224.25 156.154 223.614C155.591 221.951 154.867 220.344 153.991 218.816C153.755 218.2 153.641 217.897 152.9 217.806C151.417 217.645 150.665 220.362 150.583 221.089C150.5 221.816 150.48 224.604 150.171 224.725C149.517 224.935 148.917 225.279 148.409 225.735C145.825 227.371 143.147 232.532 143.961 234.673C139.717 230.987 139.007 215.897 150.953 207.03C160.943 199.576 170.202 208.04 175.67 213.09C180.964 217.776 173.219 219.887 173.219 219.887Z" fill="#696969"/>
<path d="M141.519 275.86C141.519 275.86 167.822 279.426 181.581 271.002C181.581 271.002 231.345 245.015 231.303 243.036C231.118 231.34 232.848 231.926 231.303 226.715C228.09 226.22 228.935 236.814 224.321 239.491L183.126 255.943C170.366 262.276 149.769 257.862 149.769 257.862L141.519 275.86Z" fill="#CCCCCC"/>
<path d="M620.327 398.563V400.755C620.346 402.342 619.722 403.871 618.593 405.007C617.463 406.143 615.92 406.794 614.302 406.815H554.631C552.992 406.815 551.421 406.176 550.262 405.04C549.103 403.903 548.452 402.362 548.452 400.755V398.563C548.461 397.777 548.629 397.001 548.945 396.278C549.26 395.556 549.718 394.901 550.292 394.352C550.866 393.804 551.545 393.371 552.289 393.08C553.034 392.789 553.83 392.644 554.631 392.655H614.302C615.095 392.649 615.881 392.799 616.614 393.094C617.347 393.389 618.014 393.824 618.574 394.373C619.135 394.923 619.578 395.577 619.879 396.296C620.18 397.015 620.332 397.786 620.327 398.563Z" fill="#696969"/>
<path d="M631.676 363.165L640.655 305.354C641.16 302.1 644.259 299.865 647.577 300.36L649.837 300.698C653.155 301.193 655.434 304.232 654.929 307.486L645.951 365.297C645.445 368.551 642.346 370.787 639.029 370.291L636.769 369.953C633.451 369.458 631.171 366.419 631.676 363.165Z" fill="#696969"/>
<path d="M620.142 403.966C619.677 403.966 619.232 403.785 618.904 403.463C618.575 403.141 618.391 402.705 618.391 402.249C618.391 401.794 618.575 401.357 618.904 401.035C619.232 400.713 619.677 400.532 620.142 400.532C631.336 400.532 634.683 378.414 635.023 369.889C635.079 369.448 635.293 369.04 635.627 368.738C635.961 368.437 636.393 368.261 636.846 368.243C637.077 368.251 637.303 368.303 637.513 368.398C637.722 368.492 637.91 368.626 638.067 368.793C638.223 368.959 638.344 369.154 638.422 369.367C638.501 369.579 638.536 369.805 638.525 370.031C638.473 371.404 636.97 403.966 620.142 403.966Z" fill="#E6E6E6"/>
<path d="M610.986 480.322C607.482 480.322 604.642 477.536 604.642 474.1C604.642 470.664 607.482 467.879 610.986 467.879C614.49 467.879 617.33 470.664 617.33 474.1C617.33 477.536 614.49 480.322 610.986 480.322Z" fill="#696969"/>
<path d="M557.947 480.322C554.444 480.322 551.603 477.536 551.603 474.1C551.603 470.664 554.444 467.879 557.947 467.879C561.451 467.879 564.292 470.664 564.292 474.1C564.292 477.536 561.451 480.322 557.947 480.322Z" fill="#696969"/>
<path d="M613.88 469.979C613.546 470.442 613.105 470.82 612.593 471.083C612.081 471.346 611.513 471.487 610.935 471.494C610.224 471.477 609.538 471.237 608.978 470.807L584.467 453.365L559.956 470.807C559.396 471.237 558.71 471.477 557.999 471.494C557.421 471.487 556.853 471.346 556.341 471.083C555.829 470.82 555.388 470.442 555.054 469.979C554.793 469.62 554.608 469.213 554.509 468.783C554.411 468.352 554.4 467.907 554.479 467.473C554.557 467.038 554.724 466.624 554.967 466.253C555.211 465.882 555.528 465.563 555.898 465.313L580.965 447.315V406.805H587.969V447.315L613.046 465.313C613.416 465.563 613.732 465.883 613.974 466.254C614.217 466.626 614.382 467.04 614.46 467.475C614.537 467.909 614.526 468.354 614.427 468.784C614.327 469.214 614.141 469.62 613.88 469.979Z" fill="#E6E6E6"/>
</g>
<defs>
<filter id="filter0_ddd_1_206" x="0.19177" y="0" width="755.807" height="515.515" filterUnits="userSpaceOnUse" color-interpolation-filters="sRGB">
<feFlood flood-opacity="0" result="BackgroundImageFix"/>
<feColorMatrix in="SourceAlpha" type="matrix" values="0 0 0 0 0 0 0 0 0 0 0 0 0 0 0 0 0 0 127 0" result="hardAlpha"/>
<feOffset dy="3.80823"/>
<feGaussianBlur stdDeviation="1.90412"/>
<feComposite in2="hardAlpha" operator="out"/>
<feColorMatrix type="matrix" values="0 0 0 0 0 0 0 0 0 0 0 0 0 0 0 0 0 0 0.25 0"/>
<feBlend mode="normal" in2="BackgroundImageFix" result="effect1_dropShadow_1_206"/>
<feColorMatrix in="SourceAlpha" type="matrix" values="0 0 0 0 0 0 0 0 0 0 0 0 0 0 0 0 0 0 127 0" result="hardAlpha"/>
<feOffset dy="3.80823"/>
<feGaussianBlur stdDeviation="1.90412"/>
<feComposite in2="hardAlpha" operator="out"/>
<feColorMatrix type="matrix" values="0 0 0 0 0 0 0 0 0 0 0 0 0 0 0 0 0 0 0.25 0"/>
<feBlend mode="normal" in2="effect1_dropShadow_1_206" result="effect2_dropShadow_1_206"/>
<feColorMatrix in="SourceAlpha" type="matrix" values="0 0 0 0 0 0 0 0 0 0 0 0 0 0 0 0 0 0 127 0" result="hardAlpha"/>
<feOffset dy="3.80823"/>
<feGaussianBlur stdDeviation="1.90412"/>
<feComposite in2="hardAlpha" operator="out"/>
<feColorMatrix type="matrix" values="0 0 0 0 0 0 0 0 0 0 0 0 0 0 0 0 0 0 0.25 0"/>
<feBlend mode="normal" in2="effect2_dropShadow_1_206" result="effect3_dropShadow_1_206"/>
<feBlend mode="normal" in="SourceGraphic" in2="effect3_dropShadow_1_206" result="shape"/>
</filter>
<linearGradient id="paint0_linear_1_206" x1="266.172" y1="252.866" x2="155.694" y2="254.775" gradientUnits="userSpaceOnUse">
<stop stop-color="#FFB300"/>
<stop offset="1" stop-color="#FFFDE7"/>
</linearGradient>
<linearGradient id="paint1_linear_1_206" x1="209.582" y1="360.131" x2="77.5648" y2="86.4061" gradientUnits="userSpaceOnUse">
<stop stop-color="#C0CA33"/>
<stop offset="1" stop-color="#43A047"/>
</linearGradient>
<linearGradient id="paint2_linear_1_206" x1="725.254" y1="260.959" x2="565.11" y2="119.046" gradientUnits="userSpaceOnUse">
<stop stop-color="#43A047"/>
<stop offset="1" stop-color="#C0CA33"/>
</linearGradient>
<linearGradient id="paint3_linear_1_206" x1="515.486" y1="211.118" x2="338.211" y2="-103.736" gradientUnits="userSpaceOnUse">
<stop stop-color="#C0CA33"/>
<stop offset="1" stop-color="#43A047"/>
</linearGradient>
<linearGradient id="paint4_linear_1_206" x1="660.289" y1="192.404" x2="526.089" y2="192.404" gradientUnits="userSpaceOnUse">
<stop stop-color="#FFFDE7"/>
<stop offset="1" stop-color="#FFB300"/>
</linearGradient>
<linearGradient id="paint5_linear_1_206" x1="660.289" y1="195.274" x2="526.089" y2="195.274" gradientUnits="userSpaceOnUse">
<stop stop-color="#FFB300"/>
<stop offset="1" stop-color="#FFFDE7"/>
</linearGradient>
<linearGradient id="paint6_linear_1_206" x1="658.306" y1="225.807" x2="525.923" y2="175.253" gradientUnits="userSpaceOnUse">
<stop stop-color="#FFFDE7"/>
<stop offset="1" stop-color="#FFB300"/>
</linearGradient>
<linearGradient id="paint7_linear_1_206" x1="473.519" y1="187.739" x2="461.088" y2="187.739" gradientUnits="userSpaceOnUse">
<stop stop-color="#FFB300"/>
<stop offset="1" stop-color="#FFFDE7"/>
</linearGradient>
<linearGradient id="paint8_linear_1_206" x1="453.715" y1="184.891" x2="441.284" y2="184.891" gradientUnits="userSpaceOnUse">
<stop stop-color="#FFB300"/>
<stop offset="1" stop-color="#FFFDE7"/>
</linearGradient>
<linearGradient id="paint9_linear_1_206" x1="433.91" y1="187.082" x2="421.48" y2="187.082" gradientUnits="userSpaceOnUse">
<stop stop-color="#FFB300"/>
<stop offset="1" stop-color="#FFFDE7"/>
</linearGradient>
<linearGradient id="paint10_linear_1_206" x1="414.105" y1="182.8" x2="401.675" y2="182.8" gradientUnits="userSpaceOnUse">
<stop stop-color="#FFB300"/>
<stop offset="1" stop-color="#FFFDE7"/>
</linearGradient>
<linearGradient id="paint11_linear_1_206" x1="394.301" y1="186.153" x2="381.86" y2="186.153" gradientUnits="userSpaceOnUse">
<stop stop-color="#FFB300"/>
<stop offset="1" stop-color="#FFFDE7"/>
</linearGradient>
<linearGradient id="paint12_linear_1_206" x1="374.497" y1="180.841" x2="362.056" y2="180.841" gradientUnits="userSpaceOnUse">
<stop stop-color="#FFB300"/>
<stop offset="1" stop-color="#FFFDE7"/>
</linearGradient>
<linearGradient id="paint13_linear_1_206" x1="354.692" y1="182.8" x2="342.252" y2="182.8" gradientUnits="userSpaceOnUse">
<stop stop-color="#FFB300"/>
<stop offset="1" stop-color="#FFFDE7"/>
</linearGradient>
<linearGradient id="paint14_linear_1_206" x1="334.888" y1="180.841" x2="322.447" y2="180.841" gradientUnits="userSpaceOnUse">
<stop stop-color="#FFB300"/>
<stop offset="1" stop-color="#FFFDE7"/>
</linearGradient>
<linearGradient id="paint15_linear_1_206" x1="315.073" y1="178.053" x2="302.643" y2="178.053" gradientUnits="userSpaceOnUse">
<stop stop-color="#FFB300"/>
<stop offset="1" stop-color="#FFFDE7"/>
</linearGradient>
<linearGradient id="paint16_linear_1_206" x1="335.655" y1="304.719" x2="301.624" y2="304.719" gradientUnits="userSpaceOnUse">
<stop stop-color="#FFB300"/>
<stop offset="1" stop-color="#FFFDE7"/>
</linearGradient>
<linearGradient id="paint17_linear_1_206" x1="294.106" y1="304.719" x2="260.084" y2="304.719" gradientUnits="userSpaceOnUse">
<stop stop-color="#FFB300"/>
<stop offset="1" stop-color="#FFFDE7"/>
</linearGradient>
<linearGradient id="paint18_linear_1_206" x1="252.566" y1="304.719" x2="218.535" y2="304.719" gradientUnits="userSpaceOnUse">
<stop stop-color="#FFB300"/>
<stop offset="1" stop-color="#FFFDE7"/>
</linearGradient>
<linearGradient id="paint19_linear_1_206" x1="426.567" y1="345.307" x2="350.573" y2="345.307" gradientUnits="userSpaceOnUse">
<stop stop-color="#FFB300"/>
<stop offset="1" stop-color="#FFFDE7"/>
</linearGradient>
<linearGradient id="paint20_linear_1_206" x1="426.567" y1="361.042" x2="310.81" y2="361.042" gradientUnits="userSpaceOnUse">
<stop stop-color="#FFB300"/>
<stop offset="1" stop-color="#FFFDE7"/>
</linearGradient>
<linearGradient id="paint21_linear_1_206" x1="426.475" y1="372.293" x2="310.717" y2="372.293" gradientUnits="userSpaceOnUse">
<stop stop-color="#FFB300"/>
<stop offset="1" stop-color="#FFFDE7"/>
</linearGradient>
<linearGradient id="paint22_linear_1_206" x1="663.122" y1="246.113" x2="628.886" y2="279.004" gradientUnits="userSpaceOnUse">
<stop stop-color="#FFB300"/>
<stop offset="1" stop-color="#FFFDE7"/>
</linearGradient>
<linearGradient id="paint23_linear_1_206" x1="505.548" y1="123.828" x2="464.183" y2="148.006" gradientUnits="userSpaceOnUse">
<stop stop-color="#FFFDE7"/>
<stop offset="1" stop-color="#FFB300"/>
</linearGradient>
<linearGradient id="paint24_linear_1_206" x1="172.735" y1="476.897" x2="104.072" y2="425.932" gradientUnits="userSpaceOnUse">
<stop stop-color="#D4E157"/>
<stop offset="1" stop-color="#C0CA33"/>
</linearGradient>
<linearGradient id="paint25_linear_1_206" x1="226.772" y1="272.406" x2="285.777" y2="213.909" gradientUnits="userSpaceOnUse">
<stop stop-color="#FFFDE7"/>
<stop offset="1" stop-color="#FFB300"/>
</linearGradient>
<linearGradient id="paint26_linear_1_206" x1="295.021" y1="245.52" x2="288.585" y2="245.52" gradientUnits="userSpaceOnUse">
<stop stop-color="#FFB300"/>
<stop offset="1" stop-color="#FFFDE7"/>
</linearGradient>
<linearGradient id="paint27_linear_1_206" x1="390.079" y1="245.521" x2="306.907" y2="245.521" gradientUnits="userSpaceOnUse">
<stop stop-color="#FFB300"/>
<stop offset="1" stop-color="#FFFDE7"/>
</linearGradient>
<linearGradient id="paint28_linear_1_206" x1="408.4" y1="245.52" x2="401.964" y2="245.52" gradientUnits="userSpaceOnUse">
<stop stop-color="#FFB300"/>
<stop offset="1" stop-color="#FFFDE7"/>
</linearGradient>
<linearGradient id="paint29_linear_1_206" x1="495.826" y1="304.726" x2="491.799" y2="304.726" gradientUnits="userSpaceOnUse">
<stop stop-color="#FFB300"/>
<stop offset="1" stop-color="#FCF9CF"/>
</linearGradient>
<linearGradient id="paint30_linear_1_206" x1="493.807" y1="242.662" x2="493.807" y2="230.371" gradientUnits="userSpaceOnUse">
<stop stop-color="#FFB300"/>
<stop offset="1" stop-color="#FFFDE7"/>
</linearGradient>
<linearGradient id="paint31_linear_1_206" x1="488.792" y1="275.719" x2="501.333" y2="262.375" gradientUnits="userSpaceOnUse">
<stop stop-color="#FFB300"/>
<stop offset="1" stop-color="#FFFDE7"/>
</linearGradient>
<linearGradient id="paint32_linear_1_206" x1="535.363" y1="282.688" x2="511.913" y2="282.688" gradientUnits="userSpaceOnUse">
<stop stop-color="#FFB300"/>
<stop offset="1" stop-color="#FFFDE7"/>
</linearGradient>
<linearGradient id="paint33_linear_1_206" x1="525.702" y1="286.031" x2="511.912" y2="286.031" gradientUnits="userSpaceOnUse">
<stop stop-color="#FFB300"/>
<stop offset="1" stop-color="#FFFDE7"/>
</linearGradient>
<linearGradient id="paint34_linear_1_206" x1="525.702" y1="288.586" x2="511.912" y2="288.586" gradientUnits="userSpaceOnUse">
<stop stop-color="#FFB300"/>
<stop offset="1" stop-color="#FFFDE7"/>
</linearGradient>
<linearGradient id="paint35_linear_1_206" x1="424.786" y1="243.45" x2="414.621" y2="243.45" gradientUnits="userSpaceOnUse">
<stop stop-color="#FFB300"/>
<stop offset="1" stop-color="#F7F3CA"/>
</linearGradient>
<linearGradient id="paint36_linear_1_206" x1="420.779" y1="247.106" x2="408.39" y2="247.106" gradientUnits="userSpaceOnUse">
<stop stop-color="#FFFDE7"/>
<stop offset="1" stop-color="#FFB300"/>
</linearGradient>
<linearGradient id="paint37_linear_1_206" x1="395.743" y1="322.006" x2="347.885" y2="322.006" gradientUnits="userSpaceOnUse">
<stop stop-color="#FFFDE7"/>
<stop offset="1" stop-color="#FFB300"/>
</linearGradient>
<linearGradient id="paint38_linear_1_206" x1="391.675" y1="309.2" x2="343.807" y2="309.2" gradientUnits="userSpaceOnUse">
<stop stop-color="#FFB300"/>
<stop offset="1" stop-color="#FFFDE7"/>
</linearGradient>
<linearGradient id="paint39_linear_1_206" x1="395.743" y1="296.393" x2="347.885" y2="296.393" gradientUnits="userSpaceOnUse">
<stop stop-color="#FFFDE7"/>
<stop offset="1" stop-color="#FFB300"/>
</linearGradient>
<linearGradient id="paint40_linear_1_206" x1="159.491" y1="370.465" x2="109.657" y2="341.417" gradientUnits="userSpaceOnUse">
<stop stop-color="#004D40"/>
<stop offset="1" stop-color="#00695C"/>
</linearGradient>
<linearGradient id="paint41_linear_1_206" x1="115.268" y1="385.261" x2="29.2018" y2="385.261" gradientUnits="userSpaceOnUse">
<stop stop-color="#00695C"/>
<stop offset="1" stop-color="#004D40"/>
</linearGradient>
<linearGradient id="paint42_linear_1_206" x1="165.258" y1="258.943" x2="68.2495" y2="322.924" gradientUnits="userSpaceOnUse">
<stop stop-color="#4A3E57"/>
<stop offset="1" stop-color="#2C223D"/>
</linearGradient>
</defs>
</svg>
