<svg width="225" height="128" viewBox="0 0 225 128" fill="none" xmlns="http://www.w3.org/2000/svg">
<path d="M100.117 54.7124C98.3314 56.3815 94.9513 60.3018 94.1016 60.4273L100.072 64.9816C99.9709 64.1501 102.675 60.034 103.759 57.9496C103.512 57.1791 101.486 55.2956 100.117 54.7124Z" fill="url(#paint0_linear_1_375)"/>
<mask id="path-2-outside-1_1_375" maskUnits="userSpaceOnUse" x="159" y="94" width="66" height="20" fill="black">
<rect fill="white" x="159" y="94" width="66" height="20"/>
<path d="M164.272 106.379V110.891L166.087 111.651V113H160.349V111.651L162.163 110.891V98.4335L160.349 97.7223V96.3245H170.109C171.695 96.3245 172.896 96.7496 173.714 97.5997C174.531 98.4498 174.94 99.7005 174.94 101.352C174.94 103.003 174.507 104.254 173.64 105.104C172.79 105.954 171.539 106.379 169.888 106.379H164.272ZM172.733 101.352C172.733 100.207 172.504 99.3817 172.046 98.8749C171.605 98.3517 170.894 98.0902 169.913 98.0902H164.272V104.613H169.667C170.763 104.613 171.547 104.36 172.022 103.853C172.496 103.346 172.733 102.512 172.733 101.352ZM190.7 111.602V113H187.978L187.341 111.995C186.392 112.469 185.51 112.812 184.692 113.025C183.891 113.237 183.074 113.343 182.24 113.343C181.194 113.343 180.368 113.188 179.763 112.877C179.175 112.55 178.75 112.044 178.488 111.357C178.226 110.654 178.096 109.714 178.096 108.537V102.774L176.428 102.038V100.69H180.155V108.807C180.155 109.771 180.384 110.474 180.842 110.916C181.316 111.341 182.003 111.553 182.902 111.553C183.474 111.553 184.03 111.48 184.57 111.332C185.125 111.185 185.927 110.924 186.973 110.548V102.725L185.305 102.038V100.69H189.033V110.916L190.7 111.602ZM195.802 110.916L197.47 111.651V113H192.075V111.651L193.742 110.916V97.6733L192.075 96.9866V95.5888H195.802V110.916ZM206.293 106.036C207.421 106.248 208.263 106.485 208.818 106.747C209.374 107.008 209.75 107.352 209.946 107.777C210.143 108.185 210.241 108.766 210.241 109.518C210.241 110.45 210.069 111.193 209.726 111.749C209.399 112.289 208.81 112.689 207.96 112.951C207.126 113.213 205.941 113.343 204.404 113.343C203.62 113.343 202.859 113.302 202.124 113.221C201.388 113.155 200.497 113.033 199.451 112.853V109.322H200.922L201.633 111.406C202.5 111.553 203.448 111.627 204.478 111.627C205.491 111.627 206.252 111.578 206.758 111.48C207.265 111.365 207.609 111.185 207.788 110.94C207.985 110.679 208.083 110.302 208.083 109.812C208.083 109.371 207.993 109.044 207.813 108.831C207.633 108.602 207.363 108.439 207.004 108.341C206.66 108.243 206.055 108.128 205.189 107.997L203.521 107.703C202.361 107.491 201.486 107.253 200.898 106.992C200.309 106.73 199.892 106.379 199.647 105.937C199.418 105.48 199.304 104.842 199.304 104.025C199.304 103.126 199.459 102.414 199.769 101.891C200.096 101.368 200.652 100.984 201.437 100.739C202.222 100.477 203.325 100.346 204.748 100.346C206.17 100.346 207.854 100.51 209.799 100.837V104.245H208.377L207.715 102.333C206.636 102.153 205.614 102.063 204.65 102.063C203.799 102.063 203.145 102.12 202.688 102.235C202.23 102.349 201.911 102.529 201.731 102.774C201.551 103.019 201.462 103.371 201.462 103.828C201.462 104.286 201.56 104.63 201.756 104.858C201.952 105.071 202.271 105.243 202.712 105.373C203.154 105.488 203.922 105.635 205.017 105.815C205.426 105.864 205.851 105.937 206.293 106.036ZM218.391 100.346C220.059 100.346 221.408 100.869 222.438 101.916C223.484 102.946 224.007 104.482 224.007 106.526V107.507H214.394C214.476 108.602 214.672 109.444 214.983 110.033C215.31 110.605 215.775 111.005 216.38 111.234C217.002 111.463 217.852 111.578 218.931 111.578C220.484 111.578 222.021 111.39 223.541 111.014V112.779C222.903 112.943 222.16 113.074 221.309 113.172C220.459 113.286 219.65 113.343 218.882 113.343C216.707 113.343 215.056 112.853 213.928 111.872C212.8 110.891 212.236 109.215 212.236 106.845C212.236 104.638 212.792 103.003 213.904 101.94C215.015 100.878 216.511 100.346 218.391 100.346ZM218.269 102.112C216.993 102.112 216.062 102.398 215.473 102.97C214.885 103.542 214.533 104.474 214.419 105.766H221.824C221.726 104.556 221.391 103.649 220.819 103.044C220.247 102.423 219.397 102.112 218.269 102.112Z"/>
</mask>
<path d="M164.272 106.379V110.891L166.087 111.651V113H160.349V111.651L162.163 110.891V98.4335L160.349 97.7223V96.3245H170.109C171.695 96.3245 172.896 96.7496 173.714 97.5997C174.531 98.4498 174.94 99.7005 174.94 101.352C174.94 103.003 174.507 104.254 173.64 105.104C172.79 105.954 171.539 106.379 169.888 106.379H164.272ZM172.733 101.352C172.733 100.207 172.504 99.3817 172.046 98.8749C171.605 98.3517 170.894 98.0902 169.913 98.0902H164.272V104.613H169.667C170.763 104.613 171.547 104.36 172.022 103.853C172.496 103.346 172.733 102.512 172.733 101.352ZM190.7 111.602V113H187.978L187.341 111.995C186.392 112.469 185.51 112.812 184.692 113.025C183.891 113.237 183.074 113.343 182.24 113.343C181.194 113.343 180.368 113.188 179.763 112.877C179.175 112.55 178.75 112.044 178.488 111.357C178.226 110.654 178.096 109.714 178.096 108.537V102.774L176.428 102.038V100.69H180.155V108.807C180.155 109.771 180.384 110.474 180.842 110.916C181.316 111.341 182.003 111.553 182.902 111.553C183.474 111.553 184.03 111.48 184.57 111.332C185.125 111.185 185.927 110.924 186.973 110.548V102.725L185.305 102.038V100.69H189.033V110.916L190.7 111.602ZM195.802 110.916L197.47 111.651V113H192.075V111.651L193.742 110.916V97.6733L192.075 96.9866V95.5888H195.802V110.916ZM206.293 106.036C207.421 106.248 208.263 106.485 208.818 106.747C209.374 107.008 209.75 107.352 209.946 107.777C210.143 108.185 210.241 108.766 210.241 109.518C210.241 110.45 210.069 111.193 209.726 111.749C209.399 112.289 208.81 112.689 207.96 112.951C207.126 113.213 205.941 113.343 204.404 113.343C203.62 113.343 202.859 113.302 202.124 113.221C201.388 113.155 200.497 113.033 199.451 112.853V109.322H200.922L201.633 111.406C202.5 111.553 203.448 111.627 204.478 111.627C205.491 111.627 206.252 111.578 206.758 111.48C207.265 111.365 207.609 111.185 207.788 110.94C207.985 110.679 208.083 110.302 208.083 109.812C208.083 109.371 207.993 109.044 207.813 108.831C207.633 108.602 207.363 108.439 207.004 108.341C206.66 108.243 206.055 108.128 205.189 107.997L203.521 107.703C202.361 107.491 201.486 107.253 200.898 106.992C200.309 106.73 199.892 106.379 199.647 105.937C199.418 105.48 199.304 104.842 199.304 104.025C199.304 103.126 199.459 102.414 199.769 101.891C200.096 101.368 200.652 100.984 201.437 100.739C202.222 100.477 203.325 100.346 204.748 100.346C206.17 100.346 207.854 100.51 209.799 100.837V104.245H208.377L207.715 102.333C206.636 102.153 205.614 102.063 204.65 102.063C203.799 102.063 203.145 102.12 202.688 102.235C202.23 102.349 201.911 102.529 201.731 102.774C201.551 103.019 201.462 103.371 201.462 103.828C201.462 104.286 201.56 104.63 201.756 104.858C201.952 105.071 202.271 105.243 202.712 105.373C203.154 105.488 203.922 105.635 205.017 105.815C205.426 105.864 205.851 105.937 206.293 106.036ZM218.391 100.346C220.059 100.346 221.408 100.869 222.438 101.916C223.484 102.946 224.007 104.482 224.007 106.526V107.507H214.394C214.476 108.602 214.672 109.444 214.983 110.033C215.31 110.605 215.775 111.005 216.38 111.234C217.002 111.463 217.852 111.578 218.931 111.578C220.484 111.578 222.021 111.39 223.541 111.014V112.779C222.903 112.943 222.16 113.074 221.309 113.172C220.459 113.286 219.65 113.343 218.882 113.343C216.707 113.343 215.056 112.853 213.928 111.872C212.8 110.891 212.236 109.215 212.236 106.845C212.236 104.638 212.792 103.003 213.904 101.94C215.015 100.878 216.511 100.346 218.391 100.346ZM218.269 102.112C216.993 102.112 216.062 102.398 215.473 102.97C214.885 103.542 214.533 104.474 214.419 105.766H221.824C221.726 104.556 221.391 103.649 220.819 103.044C220.247 102.423 219.397 102.112 218.269 102.112Z" fill="#3B3A63"/>
<path d="M164.272 106.379V105.731H163.625V106.379H164.272ZM164.272 110.891H163.625V111.322L164.022 111.488L164.272 110.891ZM166.087 111.651H166.735V111.22L166.337 111.054L166.087 111.651ZM166.087 113V113.647H166.735V113H166.087ZM160.349 113H159.701V113.647H160.349V113ZM160.349 111.651L160.099 111.054L159.701 111.22V111.651H160.349ZM162.163 110.891L162.414 111.488L162.811 111.322V110.891H162.163ZM162.163 98.4335H162.811V97.9918L162.4 97.8306L162.163 98.4335ZM160.349 97.7223H159.701V98.164L160.113 98.3252L160.349 97.7223ZM160.349 96.3245V95.677H159.701V96.3245H160.349ZM173.64 105.104L173.187 104.641L173.182 104.646L173.64 105.104ZM172.046 98.8749L171.551 99.2924L171.558 99.3008L171.566 99.3089L172.046 98.8749ZM164.272 98.0902V97.4427H163.625V98.0902H164.272ZM164.272 104.613H163.625V105.261H164.272V104.613ZM172.022 103.853L171.549 103.411H171.549L172.022 103.853ZM163.625 106.379V110.891H164.92V106.379H163.625ZM164.022 111.488L165.837 112.248L166.337 111.054L164.523 110.294L164.022 111.488ZM165.44 111.651V113H166.735V111.651H165.44ZM166.087 112.353H160.349V113.647H166.087V112.353ZM160.996 113V111.651H159.701V113H160.996ZM160.599 112.248L162.414 111.488L161.913 110.294L160.099 111.054L160.599 112.248ZM162.811 110.891V98.4335H161.516V110.891H162.811ZM162.4 97.8306L160.585 97.1195L160.113 98.3252L161.927 99.0363L162.4 97.8306ZM160.996 97.7223V96.3245H159.701V97.7223H160.996ZM160.349 96.972H170.109V95.677H160.349V96.972ZM170.109 96.972C171.581 96.972 172.589 97.3645 173.247 98.0485L174.18 97.1509C173.203 96.1347 171.808 95.677 170.109 95.677V96.972ZM173.247 98.0485C173.909 98.7368 174.292 99.8003 174.292 101.352H175.587C175.587 99.6007 175.153 98.1629 174.18 97.1509L173.247 98.0485ZM174.292 101.352C174.292 102.893 173.89 103.952 173.187 104.641L174.094 105.566C175.124 104.555 175.587 103.112 175.587 101.352H174.292ZM173.182 104.646C172.493 105.335 171.433 105.731 169.888 105.731V107.026C171.645 107.026 173.087 106.573 174.098 105.562L173.182 104.646ZM169.888 105.731H164.272V107.026H169.888V105.731ZM173.38 101.352C173.38 100.148 173.144 99.1247 172.527 98.4409L171.566 99.3089C171.863 99.6387 172.085 100.267 172.085 101.352H173.38ZM172.541 98.4573C171.93 97.7337 170.999 97.4427 169.913 97.4427V98.7376C170.788 98.7376 171.279 98.9697 171.551 99.2924L172.541 98.4573ZM169.913 97.4427H164.272V98.7376H169.913V97.4427ZM163.625 98.0902V104.613H164.92V98.0902H163.625ZM164.272 105.261H169.667V103.966H164.272V105.261ZM169.667 105.261C170.841 105.261 171.843 104.992 172.494 104.295L171.549 103.411C171.252 103.727 170.685 103.966 169.667 103.966V105.261ZM172.494 104.295C173.136 103.61 173.38 102.573 173.38 101.352H172.085C172.085 102.451 171.856 103.082 171.549 103.411L172.494 104.295ZM190.7 111.602H191.348V111.169L190.947 111.003L190.7 111.602ZM190.7 113V113.647H191.348V113H190.7ZM187.978 113L187.431 113.347L187.622 113.647H187.978V113ZM187.341 111.995L187.887 111.648L187.574 111.154L187.051 111.415L187.341 111.995ZM184.692 113.025L184.529 112.398L184.526 112.399L184.692 113.025ZM179.763 112.877L179.449 113.443L179.458 113.449L179.467 113.453L179.763 112.877ZM178.488 111.357L177.881 111.583L177.883 111.587L178.488 111.357ZM178.096 102.774H178.743V102.352L178.357 102.182L178.096 102.774ZM176.428 102.038H175.781V102.46L176.167 102.631L176.428 102.038ZM176.428 100.69V100.042H175.781V100.69H176.428ZM180.155 100.69H180.803V100.042H180.155V100.69ZM180.842 110.916L180.393 111.382L180.401 111.39L180.41 111.398L180.842 110.916ZM184.57 111.332L184.404 110.707L184.399 110.708L184.57 111.332ZM186.973 110.548L187.192 111.157L187.62 111.003V110.548H186.973ZM186.973 102.725H187.62V102.291L187.219 102.126L186.973 102.725ZM185.305 102.038H184.658V102.472L185.059 102.637L185.305 102.038ZM185.305 100.69V100.042H184.658V100.69H185.305ZM189.033 100.69H189.68V100.042H189.033V100.69ZM189.033 110.916H188.385V111.349L188.786 111.514L189.033 110.916ZM190.053 111.602V113H191.348V111.602H190.053ZM190.7 112.353H187.978V113.647H190.7V112.353ZM188.525 112.653L187.887 111.648L186.794 112.341L187.431 113.347L188.525 112.653ZM187.051 111.415C186.134 111.874 185.294 112.199 184.529 112.398L184.855 113.651C185.726 113.425 186.651 113.063 187.63 112.574L187.051 111.415ZM184.526 112.399C183.78 112.597 183.018 112.696 182.24 112.696V113.991C183.129 113.991 184.003 113.877 184.858 113.65L184.526 112.399ZM182.24 112.696C181.246 112.696 180.536 112.546 180.059 112.301L179.467 113.453C180.2 113.83 181.141 113.991 182.24 113.991V112.696ZM180.078 112.311C179.635 112.065 179.306 111.685 179.093 111.126L177.883 111.587C178.193 112.403 178.714 113.035 179.449 113.443L180.078 112.311ZM179.095 111.131C178.871 110.53 178.743 109.676 178.743 108.537H177.448C177.448 109.752 177.582 110.778 177.881 111.583L179.095 111.131ZM178.743 108.537V102.774H177.448V108.537H178.743ZM178.357 102.182L176.689 101.446L176.167 102.631L177.834 103.366L178.357 102.182ZM177.076 102.038V100.69H175.781V102.038H177.076ZM176.428 101.337H180.155V100.042H176.428V101.337ZM179.508 100.69V108.807H180.803V100.69H179.508ZM179.508 108.807C179.508 109.857 179.756 110.767 180.393 111.382L181.292 110.449C181.013 110.181 180.803 109.685 180.803 108.807H179.508ZM180.41 111.398C181.044 111.966 181.909 112.201 182.902 112.201V110.906C182.097 110.906 181.589 110.715 181.274 110.433L180.41 111.398ZM182.902 112.201C183.53 112.201 184.144 112.12 184.74 111.957L184.399 110.708C183.917 110.839 183.418 110.906 182.902 110.906V112.201ZM184.735 111.958C185.319 111.804 186.141 111.535 187.192 111.157L186.754 109.938C185.712 110.313 184.932 110.567 184.404 110.707L184.735 111.958ZM187.62 110.548V102.725H186.325V110.548H187.62ZM187.219 102.126L185.552 101.44L185.059 102.637L186.726 103.324L187.219 102.126ZM185.953 102.038V100.69H184.658V102.038H185.953ZM185.305 101.337H189.033V100.042H185.305V101.337ZM188.385 100.69V110.916H189.68V100.69H188.385ZM188.786 111.514L190.454 112.201L190.947 111.003L189.279 110.317L188.786 111.514ZM195.802 110.916H195.155V111.338L195.541 111.508L195.802 110.916ZM197.47 111.651H198.117V111.229L197.731 111.059L197.47 111.651ZM197.47 113V113.647H198.117V113H197.47ZM192.075 113H191.427V113.647H192.075V113ZM192.075 111.651L191.813 111.059L191.427 111.229V111.651H192.075ZM193.742 110.916L194.004 111.508L194.39 111.338V110.916H193.742ZM193.742 97.6733H194.39V97.2397L193.989 97.0746L193.742 97.6733ZM192.075 96.9866H191.427V97.4202L191.828 97.5853L192.075 96.9866ZM192.075 95.5888V94.9414H191.427V95.5888H192.075ZM195.802 95.5888H196.45V94.9414H195.802V95.5888ZM195.541 111.508L197.208 112.244L197.731 111.059L196.063 110.323L195.541 111.508ZM196.822 111.651V113H198.117V111.651H196.822ZM197.47 112.353H192.075V113.647H197.47V112.353ZM192.722 113V111.651H191.427V113H192.722ZM192.336 112.244L194.004 111.508L193.481 110.323L191.813 111.059L192.336 112.244ZM194.39 110.916V97.6733H193.095V110.916H194.39ZM193.989 97.0746L192.321 96.3879L191.828 97.5853L193.496 98.272L193.989 97.0746ZM192.722 96.9866V95.5888H191.427V96.9866H192.722ZM192.075 96.2363H195.802V94.9414H192.075V96.2363ZM195.155 95.5888V110.916H196.45V95.5888H195.155ZM206.293 106.036L206.152 106.668L206.162 106.67L206.173 106.672L206.293 106.036ZM208.818 106.747L209.094 106.161L208.818 106.747ZM209.946 107.777L209.358 108.048L209.363 108.057L209.946 107.777ZM209.726 111.749L209.175 111.409L209.172 111.414L209.726 111.749ZM207.96 112.951L207.77 112.332L207.766 112.333L207.96 112.951ZM202.124 113.221L202.195 112.577L202.188 112.576L202.181 112.576L202.124 113.221ZM199.451 112.853H198.803V113.399L199.341 113.491L199.451 112.853ZM199.451 109.322V108.674H198.803V109.322H199.451ZM200.922 109.322L201.535 109.113L201.385 108.674H200.922V109.322ZM201.633 111.406L201.02 111.615L201.145 111.98L201.525 112.044L201.633 111.406ZM206.758 111.48L206.881 112.115L206.891 112.113L206.901 112.111L206.758 111.48ZM207.788 110.94L207.27 110.552L207.266 110.557L207.788 110.94ZM207.813 108.831L207.304 109.231L207.311 109.24L207.319 109.249L207.813 108.831ZM207.004 108.341L206.826 108.963L206.833 108.965L207.004 108.341ZM205.189 107.997L205.076 108.635L205.084 108.636L205.092 108.638L205.189 107.997ZM203.521 107.703L203.405 108.34L203.409 108.341L203.521 107.703ZM200.898 106.992L200.635 107.584L200.898 106.992ZM199.647 105.937L199.068 106.227L199.074 106.24L199.081 106.252L199.647 105.937ZM199.769 101.891L199.22 101.548L199.216 101.554L199.213 101.561L199.769 101.891ZM201.437 100.739L201.63 101.357L201.642 101.353L201.437 100.739ZM209.799 100.837H210.447V100.289L209.907 100.198L209.799 100.837ZM209.799 104.245V104.893H210.447V104.245H209.799ZM208.377 104.245L207.765 104.457L207.916 104.893H208.377V104.245ZM207.715 102.333L208.327 102.121L208.201 101.757L207.821 101.694L207.715 102.333ZM202.688 102.235L202.531 101.606L202.688 102.235ZM201.731 102.774L201.209 102.391L201.731 102.774ZM201.756 104.858L201.264 105.28L201.272 105.289L201.28 105.298L201.756 104.858ZM202.712 105.373L202.528 105.994L202.539 105.997L202.55 106L202.712 105.373ZM205.017 105.815L204.912 106.454L204.926 106.456L204.94 106.458L205.017 105.815ZM206.173 106.672C207.285 106.881 208.062 107.106 208.543 107.333L209.094 106.161C208.463 105.864 207.556 105.615 206.412 105.399L206.173 106.672ZM208.543 107.333C209.004 107.55 209.244 107.799 209.359 108.048L210.534 107.505C210.257 106.904 209.744 106.467 209.094 106.161L208.543 107.333ZM209.363 108.057C209.498 108.339 209.593 108.807 209.593 109.518H210.888C210.888 108.725 210.787 108.032 210.53 107.496L209.363 108.057ZM209.593 109.518C209.593 110.378 209.434 110.99 209.175 111.409L210.277 112.09C210.705 111.397 210.888 110.521 210.888 109.518H209.593ZM209.172 111.414C208.956 111.771 208.53 112.098 207.77 112.332L208.15 113.57C209.09 113.281 209.842 112.807 210.279 112.085L209.172 111.414ZM207.766 112.333C207.025 112.566 205.917 112.696 204.404 112.696V113.991C205.965 113.991 207.227 113.859 208.154 113.569L207.766 112.333ZM204.404 112.696C203.642 112.696 202.906 112.656 202.195 112.577L202.052 113.864C202.813 113.949 203.597 113.991 204.404 113.991V112.696ZM202.181 112.576C201.469 112.512 200.596 112.393 199.56 112.215L199.341 113.491C200.398 113.673 201.307 113.798 202.066 113.866L202.181 112.576ZM200.098 112.853V109.322H198.803V112.853H200.098ZM199.451 109.969H200.922V108.674H199.451V109.969ZM200.309 109.531L201.02 111.615L202.246 111.197L201.535 109.113L200.309 109.531ZM201.525 112.044C202.433 112.199 203.418 112.274 204.478 112.274V110.979C203.478 110.979 202.567 110.908 201.742 110.768L201.525 112.044ZM204.478 112.274C205.501 112.274 206.312 112.226 206.881 112.115L206.635 110.844C206.191 110.93 205.482 110.979 204.478 110.979V112.274ZM206.901 112.111C207.461 111.985 207.992 111.757 208.311 111.323L207.266 110.557C207.225 110.614 207.069 110.746 206.616 110.848L206.901 112.111ZM208.306 111.329C208.619 110.911 208.73 110.376 208.73 109.812H207.435C207.435 110.229 207.35 110.446 207.27 110.552L208.306 111.329ZM208.73 109.812C208.73 109.302 208.63 108.794 208.307 108.413L207.319 109.249C207.356 109.294 207.435 109.439 207.435 109.812H208.73ZM208.322 108.431C208.035 108.066 207.63 107.84 207.174 107.716L206.833 108.965C207.097 109.037 207.231 109.139 207.304 109.231L208.322 108.431ZM207.182 107.718C206.794 107.607 206.152 107.488 205.286 107.357L205.092 108.638C205.959 108.768 206.527 108.878 206.826 108.963L207.182 107.718ZM205.302 107.36L203.634 107.065L203.409 108.341L205.076 108.635L205.302 107.36ZM203.638 107.066C202.493 106.857 201.679 106.63 201.16 106.4L200.635 107.584C201.294 107.877 202.228 108.125 203.405 108.34L203.638 107.066ZM201.16 106.4C200.665 106.18 200.373 105.911 200.213 105.623L199.081 106.252C199.411 106.846 199.953 107.281 200.635 107.584L201.16 106.4ZM200.226 105.648C200.061 105.318 199.951 104.795 199.951 104.025H198.656C198.656 104.889 198.775 105.641 199.068 106.227L200.226 105.648ZM199.951 104.025C199.951 103.19 200.097 102.608 200.326 102.222L199.213 101.561C198.821 102.221 198.656 103.061 198.656 104.025H199.951ZM200.319 102.234C200.54 101.881 200.943 101.571 201.63 101.357L201.244 100.121C200.361 100.396 199.653 100.855 199.22 101.548L200.319 102.234ZM201.642 101.353C202.33 101.124 203.352 100.994 204.748 100.994V99.6988C203.298 99.6988 202.114 99.8305 201.232 100.124L201.642 101.353ZM204.748 100.994C206.123 100.994 207.769 101.152 209.692 101.475L209.907 100.198C207.938 99.8674 206.217 99.6988 204.748 99.6988V100.994ZM209.152 100.837V104.245H210.447V100.837H209.152ZM209.799 103.598H208.377V104.893H209.799V103.598ZM208.989 104.034L208.327 102.121L207.103 102.544L207.765 104.457L208.989 104.034ZM207.821 101.694C206.712 101.509 205.654 101.415 204.65 101.415V102.71C205.574 102.71 206.56 102.797 207.608 102.971L207.821 101.694ZM204.65 101.415C203.781 101.415 203.065 101.473 202.531 101.606L202.845 102.863C203.226 102.767 203.817 102.71 204.65 102.71V101.415ZM202.531 101.606C202.003 101.738 201.516 101.973 201.209 102.391L202.253 103.157C202.306 103.085 202.457 102.96 202.845 102.863L202.531 101.606ZM201.209 102.391C200.916 102.791 200.814 103.299 200.814 103.828H202.109C202.109 103.443 202.187 103.248 202.253 103.157L201.209 102.391ZM200.814 103.828C200.814 104.364 200.927 104.886 201.264 105.28L202.247 104.437C202.193 104.373 202.109 104.209 202.109 103.828H200.814ZM201.28 105.298C201.589 105.632 202.035 105.848 202.528 105.994L202.896 104.753C202.507 104.637 202.315 104.509 202.232 104.419L201.28 105.298ZM202.55 106C203.023 106.123 203.817 106.274 204.912 106.454L205.122 105.176C204.027 104.996 203.285 104.853 202.875 104.747L202.55 106ZM204.94 106.458C205.326 106.504 205.73 106.574 206.152 106.668L206.433 105.403C205.973 105.301 205.526 105.224 205.094 105.172L204.94 106.458ZM222.438 101.916L221.976 102.37L221.983 102.377L222.438 101.916ZM224.007 107.507V108.154H224.654V107.507H224.007ZM214.394 107.507V106.859H213.696L213.748 107.555L214.394 107.507ZM214.983 110.033L214.41 110.335L214.415 110.345L214.42 110.354L214.983 110.033ZM216.38 111.234L216.151 111.84L216.157 111.842L216.38 111.234ZM223.541 111.014H224.189V110.187L223.386 110.385L223.541 111.014ZM223.541 112.779L223.702 113.406L224.189 113.282V112.779H223.541ZM221.309 113.172L221.235 112.528L221.223 112.53L221.309 113.172ZM213.928 111.872L214.353 111.383L213.928 111.872ZM213.904 101.94L213.456 101.472L213.904 101.94ZM215.473 102.97L215.924 103.434L215.473 102.97ZM214.419 105.766L213.774 105.709L213.711 106.413H214.419V105.766ZM221.824 105.766V106.413H222.527L222.47 105.713L221.824 105.766ZM220.819 103.044L220.343 103.482L220.349 103.489L220.819 103.044ZM218.391 100.994C219.911 100.994 221.085 101.464 221.976 102.37L222.899 101.461C221.73 100.274 220.207 99.6988 218.391 99.6988V100.994ZM221.983 102.377C222.864 103.244 223.359 104.587 223.359 106.526H224.654C224.654 104.378 224.104 102.647 222.892 101.454L221.983 102.377ZM223.359 106.526V107.507H224.654V106.526H223.359ZM224.007 106.859H214.394V108.154H224.007V106.859ZM213.748 107.555C213.833 108.689 214.039 109.633 214.41 110.335L215.555 109.731C215.305 109.256 215.119 108.516 215.04 107.459L213.748 107.555ZM214.42 110.354C214.82 111.054 215.403 111.557 216.151 111.84L216.61 110.629C216.148 110.454 215.799 110.156 215.545 109.712L214.42 110.354ZM216.157 111.842C216.88 112.109 217.817 112.225 218.931 112.225V110.93C217.886 110.93 217.123 110.818 216.604 110.627L216.157 111.842ZM218.931 112.225C220.537 112.225 222.126 112.031 223.696 111.642L223.386 110.385C221.916 110.749 220.431 110.93 218.931 110.93V112.225ZM222.894 111.014V112.779H224.189V111.014H222.894ZM223.38 112.152C222.778 112.307 222.064 112.433 221.235 112.528L221.384 113.815C222.255 113.714 223.029 113.579 223.702 113.406L223.38 112.152ZM221.223 112.53C220.398 112.641 219.618 112.696 218.882 112.696V113.991C219.682 113.991 220.52 113.931 221.396 113.813L221.223 112.53ZM218.882 112.696C216.794 112.696 215.32 112.224 214.353 111.383L213.503 112.361C214.793 113.482 216.621 113.991 218.882 113.991V112.696ZM214.353 111.383C213.432 110.582 212.884 109.136 212.884 106.845H211.589C211.589 109.294 212.169 111.2 213.503 112.361L214.353 111.383ZM212.884 106.845C212.884 104.737 213.414 103.304 214.351 102.408L213.456 101.472C212.17 102.702 211.589 104.539 211.589 106.845H212.884ZM214.351 102.408C215.317 101.485 216.639 100.994 218.391 100.994V99.6988C216.384 99.6988 214.714 100.27 213.456 101.472L214.351 102.408ZM218.269 101.464C216.915 101.464 215.783 101.765 215.022 102.506L215.924 103.434C216.34 103.031 217.072 102.759 218.269 102.759V101.464ZM215.022 102.506C214.273 103.234 213.894 104.347 213.774 105.709L215.064 105.823C215.172 104.601 215.496 103.851 215.924 103.434L215.022 102.506ZM214.419 106.413H221.824V105.118H214.419V106.413ZM222.47 105.713C222.365 104.422 222 103.35 221.289 102.599L220.349 103.489C220.782 103.947 221.088 104.69 221.179 105.818L222.47 105.713ZM221.295 102.605C220.563 101.81 219.514 101.464 218.269 101.464V102.759C219.279 102.759 219.93 103.035 220.343 103.482L221.295 102.605Z" fill="#3B3A63" mask="url(#path-2-outside-1_1_375)"/>
<mask id="path-4-outside-2_1_375" maskUnits="userSpaceOnUse" x="2" y="35" width="221" height="62" fill="black">
<rect fill="white" x="2" y="35" width="221" height="62"/>
<path d="M13.7167 64.7743V76.5133L18.4379 78.4911V82H3.50894V78.4911L8.23005 76.5133V44.1035L3.50894 42.2533V38.6168H28.9009C33.0265 38.6168 36.1527 39.7226 38.2793 41.9343C40.4059 44.146 41.4692 47.3998 41.4692 51.6956C41.4692 55.9913 40.3421 59.2451 38.0879 61.4568C35.8762 63.6685 32.6225 64.7743 28.3267 64.7743H13.7167ZM35.7273 51.6956C35.7273 48.7183 35.1319 46.5704 33.941 45.2519C32.7926 43.8908 30.9424 43.2103 28.3905 43.2103H13.7167V60.1808H27.7525C30.6022 60.1808 32.6437 59.5215 33.8772 58.203C35.1106 56.8845 35.7273 54.7154 35.7273 51.6956ZM68.5638 48.9522C70.4352 48.9522 71.7963 49.3988 72.6469 50.292C73.4976 51.1852 73.9229 52.5675 73.9229 54.4389C73.9229 57.884 71.9664 59.6066 68.0534 59.6066L65.5015 53.8647C63.8427 54.29 62.1627 54.8855 60.4614 55.6511C58.8026 56.3741 57.3139 57.161 55.9954 58.0116V76.5771L61.9287 78.4911V82H46.298V78.4911L50.6363 76.5771V55.3959L46.298 53.6095V49.973H53.3797L55.804 53.8009C57.9307 52.2272 60.0998 51.0363 62.3115 50.2282C64.5232 49.3775 66.6073 48.9522 68.5638 48.9522ZM94.3326 49.0798C99.2238 49.0798 103.137 50.4408 106.072 53.1629C109.049 55.8425 110.537 60.117 110.537 65.9865C110.537 71.856 109.049 76.1518 106.072 78.8739C103.137 81.5534 99.2238 82.8932 94.3326 82.8932C89.4413 82.8932 85.5071 81.5534 82.5298 78.8739C79.595 76.1518 78.1277 71.856 78.1277 65.9865C78.1277 60.117 79.595 55.8425 82.5298 53.1629C85.5071 50.4408 89.4413 49.0798 94.3326 49.0798ZM94.3326 53.6733C91.7806 53.6733 89.739 54.0348 88.2079 54.7579C86.7192 55.481 85.5921 56.7357 84.8265 58.522C84.1035 60.3084 83.742 62.7966 83.742 65.9865C83.742 69.1764 84.1035 71.6646 84.8265 73.451C85.5921 75.2373 86.7192 76.492 88.2079 77.2151C89.739 77.9381 91.7806 78.2997 94.3326 78.2997C96.8845 78.2997 98.9048 77.9381 100.393 77.2151C101.925 76.492 103.052 75.2373 103.775 73.451C104.54 71.6646 104.923 69.1764 104.923 65.9865C104.923 62.7966 104.54 60.3084 103.775 58.522C103.052 56.7357 101.925 55.481 100.393 54.7579C98.9048 54.0348 96.8845 53.6733 94.3326 53.6733ZM122.585 36.001C123.904 36.001 124.946 36.3838 125.712 37.1494C126.52 37.915 126.924 38.9996 126.924 40.4032C126.924 41.8067 126.52 42.8913 125.712 43.6569C124.946 44.4225 123.904 44.8053 122.585 44.8053C121.267 44.8053 120.204 44.4225 119.396 43.6569C118.63 42.8913 118.247 41.8067 118.247 40.4032C118.247 38.9996 118.63 37.915 119.396 37.1494C120.204 36.3838 121.267 36.001 122.585 36.001ZM125.775 86.2107C125.775 89.5708 124.861 92.0802 123.032 93.739C121.203 95.4403 118.715 96.2909 115.568 96.2909C113.569 96.2909 112.122 95.9507 111.229 95.2702C110.336 94.5896 109.89 93.5476 109.89 92.144C109.89 90.9106 110.23 89.9961 110.91 89.4007C111.591 88.8477 112.76 88.5713 114.419 88.5713L115.95 91.825C118.928 91.825 120.416 90.2938 120.416 87.2315V55.3959L116.078 53.6095V49.973H125.775V86.2107ZM150.339 49.0798C154.677 49.0798 158.186 50.4408 160.866 53.1629C163.588 55.8425 164.949 59.8405 164.949 65.1571V67.7091H139.94C140.152 70.5587 140.663 72.7492 141.471 74.2803C142.322 75.769 143.534 76.811 145.107 77.4065C146.724 78.0019 148.935 78.2997 151.743 78.2997C155.783 78.2997 159.781 77.8105 163.737 76.8323V81.4258C162.078 81.8511 160.143 82.1914 157.931 82.4466C155.719 82.7443 153.614 82.8932 151.615 82.8932C145.958 82.8932 141.662 81.6172 138.728 79.0653C135.793 76.5133 134.325 72.1537 134.325 65.9865C134.325 60.2446 135.772 55.9913 138.664 53.2267C141.556 50.4621 145.448 49.0798 150.339 49.0798ZM150.02 53.6733C146.702 53.6733 144.278 54.4176 142.747 55.9063C141.216 57.3949 140.301 59.8193 140.004 63.1793H159.271C159.016 60.0319 158.144 57.6714 156.655 56.0977C155.166 54.4814 152.955 53.6733 150.02 53.6733ZM186.561 49.0798C190.091 49.0798 192.58 49.5264 194.026 50.4196C195.472 51.3128 196.195 52.7376 196.195 54.6941C196.195 58.1392 194.153 59.8618 190.07 59.8618L187.263 53.4819C183.903 53.4819 181.372 53.8647 179.671 54.6303C177.97 55.3959 176.779 56.6506 176.098 58.3944C175.46 60.0957 175.141 62.5839 175.141 65.8589C175.141 69.219 175.503 71.7922 176.226 73.5786C176.991 75.3649 178.14 76.5984 179.671 77.2789C181.245 77.9594 183.371 78.2997 186.051 78.2997C187.88 78.2997 189.539 78.1933 191.027 77.9807C192.516 77.7255 194.068 77.3002 195.684 76.7047V81.2982C194.366 81.8086 192.814 82.1914 191.027 82.4466C189.283 82.7443 187.539 82.8932 185.796 82.8932C180.522 82.8932 176.481 81.6385 173.674 79.1291C170.909 76.5771 169.527 72.2175 169.527 66.0503C169.527 60.0532 170.931 55.7361 173.738 53.0991C176.587 50.4196 180.862 49.0798 186.561 49.0798ZM216.803 82.5104C212.72 82.5104 209.786 81.681 207.999 80.0222C206.255 78.3635 205.383 75.5563 205.383 71.6008V54.4389H200.407V50.8662L205.383 49.973L207.297 40.7222H210.743V49.973L221.652 50.0368V54.5027L210.743 54.4389V71.6008C210.743 73.3446 210.955 74.6631 211.38 75.5563C211.806 76.4495 212.508 77.0662 213.486 77.4065C214.464 77.7467 215.889 77.9169 217.76 77.9169C219.206 77.9169 220.716 77.768 222.29 77.4703V81.9362C220.759 82.319 218.93 82.5104 216.803 82.5104Z"/>
</mask>
<path d="M13.7167 64.7743V76.5133L18.4379 78.4911V82H3.50894V78.4911L8.23005 76.5133V44.1035L3.50894 42.2533V38.6168H28.9009C33.0265 38.6168 36.1527 39.7226 38.2793 41.9343C40.4059 44.146 41.4692 47.3998 41.4692 51.6956C41.4692 55.9913 40.3421 59.2451 38.0879 61.4568C35.8762 63.6685 32.6225 64.7743 28.3267 64.7743H13.7167ZM35.7273 51.6956C35.7273 48.7183 35.1319 46.5704 33.941 45.2519C32.7926 43.8908 30.9424 43.2103 28.3905 43.2103H13.7167V60.1808H27.7525C30.6022 60.1808 32.6437 59.5215 33.8772 58.203C35.1106 56.8845 35.7273 54.7154 35.7273 51.6956ZM68.5638 48.9522C70.4352 48.9522 71.7963 49.3988 72.6469 50.292C73.4976 51.1852 73.9229 52.5675 73.9229 54.4389C73.9229 57.884 71.9664 59.6066 68.0534 59.6066L65.5015 53.8647C63.8427 54.29 62.1627 54.8855 60.4614 55.6511C58.8026 56.3741 57.3139 57.161 55.9954 58.0116V76.5771L61.9287 78.4911V82H46.298V78.4911L50.6363 76.5771V55.3959L46.298 53.6095V49.973H53.3797L55.804 53.8009C57.9307 52.2272 60.0998 51.0363 62.3115 50.2282C64.5232 49.3775 66.6073 48.9522 68.5638 48.9522ZM94.3326 49.0798C99.2238 49.0798 103.137 50.4408 106.072 53.1629C109.049 55.8425 110.537 60.117 110.537 65.9865C110.537 71.856 109.049 76.1518 106.072 78.8739C103.137 81.5534 99.2238 82.8932 94.3326 82.8932C89.4413 82.8932 85.5071 81.5534 82.5298 78.8739C79.595 76.1518 78.1277 71.856 78.1277 65.9865C78.1277 60.117 79.595 55.8425 82.5298 53.1629C85.5071 50.4408 89.4413 49.0798 94.3326 49.0798ZM94.3326 53.6733C91.7806 53.6733 89.739 54.0348 88.2079 54.7579C86.7192 55.481 85.5921 56.7357 84.8265 58.522C84.1035 60.3084 83.742 62.7966 83.742 65.9865C83.742 69.1764 84.1035 71.6646 84.8265 73.451C85.5921 75.2373 86.7192 76.492 88.2079 77.2151C89.739 77.9381 91.7806 78.2997 94.3326 78.2997C96.8845 78.2997 98.9048 77.9381 100.393 77.2151C101.925 76.492 103.052 75.2373 103.775 73.451C104.54 71.6646 104.923 69.1764 104.923 65.9865C104.923 62.7966 104.54 60.3084 103.775 58.522C103.052 56.7357 101.925 55.481 100.393 54.7579C98.9048 54.0348 96.8845 53.6733 94.3326 53.6733ZM122.585 36.001C123.904 36.001 124.946 36.3838 125.712 37.1494C126.52 37.915 126.924 38.9996 126.924 40.4032C126.924 41.8067 126.52 42.8913 125.712 43.6569C124.946 44.4225 123.904 44.8053 122.585 44.8053C121.267 44.8053 120.204 44.4225 119.396 43.6569C118.63 42.8913 118.247 41.8067 118.247 40.4032C118.247 38.9996 118.63 37.915 119.396 37.1494C120.204 36.3838 121.267 36.001 122.585 36.001ZM125.775 86.2107C125.775 89.5708 124.861 92.0802 123.032 93.739C121.203 95.4403 118.715 96.2909 115.568 96.2909C113.569 96.2909 112.122 95.9507 111.229 95.2702C110.336 94.5896 109.89 93.5476 109.89 92.144C109.89 90.9106 110.23 89.9961 110.91 89.4007C111.591 88.8477 112.76 88.5713 114.419 88.5713L115.95 91.825C118.928 91.825 120.416 90.2938 120.416 87.2315V55.3959L116.078 53.6095V49.973H125.775V86.2107ZM150.339 49.0798C154.677 49.0798 158.186 50.4408 160.866 53.1629C163.588 55.8425 164.949 59.8405 164.949 65.1571V67.7091H139.94C140.152 70.5587 140.663 72.7492 141.471 74.2803C142.322 75.769 143.534 76.811 145.107 77.4065C146.724 78.0019 148.935 78.2997 151.743 78.2997C155.783 78.2997 159.781 77.8105 163.737 76.8323V81.4258C162.078 81.8511 160.143 82.1914 157.931 82.4466C155.719 82.7443 153.614 82.8932 151.615 82.8932C145.958 82.8932 141.662 81.6172 138.728 79.0653C135.793 76.5133 134.325 72.1537 134.325 65.9865C134.325 60.2446 135.772 55.9913 138.664 53.2267C141.556 50.4621 145.448 49.0798 150.339 49.0798ZM150.02 53.6733C146.702 53.6733 144.278 54.4176 142.747 55.9063C141.216 57.3949 140.301 59.8193 140.004 63.1793H159.271C159.016 60.0319 158.144 57.6714 156.655 56.0977C155.166 54.4814 152.955 53.6733 150.02 53.6733ZM186.561 49.0798C190.091 49.0798 192.58 49.5264 194.026 50.4196C195.472 51.3128 196.195 52.7376 196.195 54.6941C196.195 58.1392 194.153 59.8618 190.07 59.8618L187.263 53.4819C183.903 53.4819 181.372 53.8647 179.671 54.6303C177.97 55.3959 176.779 56.6506 176.098 58.3944C175.46 60.0957 175.141 62.5839 175.141 65.8589C175.141 69.219 175.503 71.7922 176.226 73.5786C176.991 75.3649 178.14 76.5984 179.671 77.2789C181.245 77.9594 183.371 78.2997 186.051 78.2997C187.88 78.2997 189.539 78.1933 191.027 77.9807C192.516 77.7255 194.068 77.3002 195.684 76.7047V81.2982C194.366 81.8086 192.814 82.1914 191.027 82.4466C189.283 82.7443 187.539 82.8932 185.796 82.8932C180.522 82.8932 176.481 81.6385 173.674 79.1291C170.909 76.5771 169.527 72.2175 169.527 66.0503C169.527 60.0532 170.931 55.7361 173.738 53.0991C176.587 50.4196 180.862 49.0798 186.561 49.0798ZM216.803 82.5104C212.72 82.5104 209.786 81.681 207.999 80.0222C206.255 78.3635 205.383 75.5563 205.383 71.6008V54.4389H200.407V50.8662L205.383 49.973L207.297 40.7222H210.743V49.973L221.652 50.0368V54.5027L210.743 54.4389V71.6008C210.743 73.3446 210.955 74.6631 211.38 75.5563C211.806 76.4495 212.508 77.0662 213.486 77.4065C214.464 77.7467 215.889 77.9169 217.76 77.9169C219.206 77.9169 220.716 77.768 222.29 77.4703V81.9362C220.759 82.319 218.93 82.5104 216.803 82.5104Z" fill="#3B3A63"/>
<path d="M13.7167 64.7743V64.1268H13.0693V64.7743H13.7167ZM13.7167 76.5133H13.0693V76.9441L13.4666 77.1105L13.7167 76.5133ZM18.4379 78.4911H19.0853V78.0603L18.688 77.8939L18.4379 78.4911ZM18.4379 82V82.6475H19.0853V82H18.4379ZM3.50894 82H2.86145V82.6475H3.50894V82ZM3.50894 78.4911L3.25876 77.8939L2.86145 78.0603V78.4911H3.50894ZM8.23005 76.5133L8.48023 77.1105L8.87753 76.9441V76.5133H8.23005ZM8.23005 44.1035H8.87753V43.6618L8.4663 43.5006L8.23005 44.1035ZM3.50894 42.2533H2.86145V42.695L3.27269 42.8562L3.50894 42.2533ZM3.50894 38.6168V37.9693H2.86145V38.6168H3.50894ZM38.0879 61.4568L37.6344 60.9946L37.6301 60.9989L38.0879 61.4568ZM33.941 45.2519L33.4461 45.6694L33.4532 45.6778L33.4605 45.6859L33.941 45.2519ZM13.7167 43.2103V42.5628H13.0693V43.2103H13.7167ZM13.7167 60.1808H13.0693V60.8283H13.7167V60.1808ZM33.8772 58.203L33.4043 57.7607V57.7607L33.8772 58.203ZM13.0693 64.7743V76.5133H14.3642V64.7743H13.0693ZM13.4666 77.1105L18.1877 79.0883L18.688 77.8939L13.9669 75.9161L13.4666 77.1105ZM17.7904 78.4911V82H19.0853V78.4911H17.7904ZM18.4379 81.3525H3.50894V82.6475H18.4379V81.3525ZM4.15642 82V78.4911H2.86145V82H4.15642ZM3.75911 79.0883L8.48023 77.1105L7.97987 75.9161L3.25876 77.8939L3.75911 79.0883ZM8.87753 76.5133V44.1035H7.58257V76.5133H8.87753ZM8.4663 43.5006L3.74518 41.6505L3.27269 42.8562L7.9938 44.7063L8.4663 43.5006ZM4.15642 42.2533V38.6168H2.86145V42.2533H4.15642ZM3.50894 39.2643H28.9009V37.9693H3.50894V39.2643ZM28.9009 39.2643C32.9133 39.2643 35.8457 40.3375 37.8126 42.3831L38.746 41.4856C36.4597 39.1078 33.1398 37.9693 28.9009 37.9693V39.2643ZM37.8126 42.3831C39.7836 44.433 40.8218 47.4996 40.8218 51.6956H42.1167C42.1167 47.3 41.0282 43.8591 38.746 41.4856L37.8126 42.3831ZM40.8218 51.6956C40.8218 55.8819 39.7251 58.9434 37.6344 60.9946L38.5414 61.919C40.9592 59.5468 42.1167 56.1008 42.1167 51.6956H40.8218ZM37.6301 60.9989C35.5794 63.0496 32.5163 64.1268 28.3267 64.1268V65.4218C32.7286 65.4218 36.173 64.2873 38.5457 61.9146L37.6301 60.9989ZM28.3267 64.1268H13.7167V65.4218H28.3267V64.1268ZM36.3748 51.6956C36.3748 48.6586 35.7723 46.3134 34.4215 44.8179L33.4605 45.6859C34.4915 46.8274 35.0799 48.7779 35.0799 51.6956H36.3748ZM34.4358 44.8343C33.1183 43.2728 31.0478 42.5628 28.3905 42.5628V43.8578C30.8371 43.8578 32.4669 44.5088 33.4461 45.6694L34.4358 44.8343ZM28.3905 42.5628H13.7167V43.8578H28.3905V42.5628ZM13.0693 43.2103V60.1808H14.3642V43.2103H13.0693ZM13.7167 60.8283H27.7525V59.5333H13.7167V60.8283ZM27.7525 60.8283C30.68 60.8283 32.9388 60.1539 34.35 58.6454L33.4043 57.7607C32.3486 58.8892 30.5243 59.5333 27.7525 59.5333V60.8283ZM34.35 58.6454C35.7505 57.1483 36.3748 54.7763 36.3748 51.6956H35.0799C35.0799 54.6544 34.4707 56.6208 33.4043 57.7607L34.35 58.6454ZM68.0534 59.6066L67.4617 59.8696L67.6326 60.2541H68.0534V59.6066ZM65.5015 53.8647L66.0931 53.6017L65.8708 53.1016L65.3406 53.2375L65.5015 53.8647ZM60.4614 55.6511L60.7201 56.2447L60.7271 56.2415L60.4614 55.6511ZM55.9954 58.0116L55.6444 57.4676L55.348 57.6588V58.0116H55.9954ZM55.9954 76.5771H55.348V77.0486L55.7967 77.1933L55.9954 76.5771ZM61.9287 78.4911H62.5762V78.0196L62.1275 77.8748L61.9287 78.4911ZM61.9287 82V82.6475H62.5762V82H61.9287ZM46.298 82H45.6505V82.6475H46.298V82ZM46.298 78.4911L46.0367 77.8987L45.6505 78.069V78.4911H46.298ZM50.6363 76.5771L50.8977 77.1695L51.2838 76.9991V76.5771H50.6363ZM50.6363 55.3959H51.2838V54.9623L50.8829 54.7972L50.6363 55.3959ZM46.298 53.6095H45.6505V54.0431L46.0515 54.2082L46.298 53.6095ZM46.298 49.973V49.3255H45.6505V49.973H46.298ZM53.3797 49.973L53.9267 49.6265L53.736 49.3255H53.3797V49.973ZM55.804 53.8009L55.257 54.1474L55.6295 54.7355L56.1892 54.3214L55.804 53.8009ZM62.3115 50.2282L62.5338 50.8364L62.544 50.8325L62.3115 50.2282ZM68.5638 49.5997C70.3489 49.5997 71.5006 50.0272 72.1781 50.7385L73.1158 49.8454C72.0919 48.7704 70.5216 48.3047 68.5638 48.3047V49.5997ZM72.1781 50.7385C72.8669 51.4618 73.2754 52.6497 73.2754 54.4389H74.5704C74.5704 52.4852 74.1283 50.9085 73.1158 49.8454L72.1781 50.7385ZM73.2754 54.4389C73.2754 56.0387 72.825 57.1268 72.0277 57.8287C71.2147 58.5445 69.9289 58.9591 68.0534 58.9591V60.2541C70.0909 60.2541 71.7399 59.8074 72.8834 58.8007C74.0426 57.78 74.5704 56.2842 74.5704 54.4389H73.2754ZM68.6451 59.3436L66.0931 53.6017L64.9098 54.1277L67.4617 59.8696L68.6451 59.3436ZM65.3406 53.2375C63.6429 53.6728 61.9278 54.2812 60.1957 55.0606L60.7271 56.2415C62.3975 55.4898 64.0425 54.9072 65.6623 54.4919L65.3406 53.2375ZM60.2026 55.0575C58.5166 55.7925 56.9964 56.5953 55.6444 57.4676L56.3465 58.5557C57.6315 57.7266 59.0886 56.9558 60.7201 56.2446L60.2026 55.0575ZM55.348 58.0116V76.5771H56.6429V58.0116H55.348ZM55.7967 77.1933L61.7299 79.1073L62.1275 77.8748L56.1942 75.9609L55.7967 77.1933ZM61.2812 78.4911V82H62.5762V78.4911H61.2812ZM61.9287 81.3525H46.298V82.6475H61.9287V81.3525ZM46.9455 82V78.4911H45.6505V82H46.9455ZM46.5594 79.0835L50.8977 77.1695L50.375 75.9847L46.0367 77.8987L46.5594 79.0835ZM51.2838 76.5771V55.3959H49.9889V76.5771H51.2838ZM50.8829 54.7972L46.5445 53.0108L46.0515 54.2082L50.3898 55.9946L50.8829 54.7972ZM46.9455 53.6095V49.973H45.6505V53.6095H46.9455ZM46.298 50.6205H53.3797V49.3255H46.298V50.6205ZM52.8327 50.3194L55.257 54.1474L56.351 53.4545L53.9267 49.6265L52.8327 50.3194ZM56.1892 54.3214C58.272 52.7801 60.387 51.6207 62.5337 50.8363L62.0893 49.62C59.8127 50.4519 57.5893 51.6743 55.4189 53.2804L56.1892 54.3214ZM62.544 50.8325C64.6967 50.0045 66.7016 49.5997 68.5638 49.5997V48.3047C66.513 48.3047 64.3497 48.7505 62.0791 49.6239L62.544 50.8325ZM106.072 53.1629L105.631 53.6377L105.638 53.6442L106.072 53.1629ZM106.072 78.8739L106.508 79.352L106.508 79.3517L106.072 78.8739ZM82.5298 78.8739L82.0894 79.3486L82.0966 79.3551L82.5298 78.8739ZM82.5298 53.1629L82.9664 53.6411L82.9667 53.6408L82.5298 53.1629ZM88.2079 54.7579L87.9314 54.1724L87.925 54.1755L88.2079 54.7579ZM84.8265 58.522L84.2313 58.2669L84.2263 58.2791L84.8265 58.522ZM84.8265 73.451L84.2262 73.6939L84.2314 73.706L84.8265 73.451ZM88.2079 77.2151L87.925 77.7975L87.9314 77.8006L88.2079 77.2151ZM100.393 77.2151L100.117 76.6296L100.111 76.6327L100.393 77.2151ZM103.775 73.451L103.18 73.1958L103.175 73.208L103.775 73.451ZM103.775 58.522L103.174 58.765L103.18 58.7771L103.775 58.522ZM100.393 54.7579L100.111 55.3403L100.117 55.3434L100.393 54.7579ZM94.3326 49.7273C99.0986 49.7273 102.842 51.0501 105.631 53.6376L106.512 52.6882C103.432 49.8316 99.349 48.4323 94.3326 48.4323V49.7273ZM105.638 53.6442C108.426 56.153 109.89 60.2139 109.89 65.9865H111.185C111.185 60.0201 109.672 55.532 106.505 52.6817L105.638 53.6442ZM109.89 65.9865C109.89 71.7581 108.426 75.8436 105.635 78.396L106.508 79.3517C109.671 76.4599 111.185 71.9539 111.185 65.9865H109.89ZM105.635 78.3957C102.846 80.9426 99.1013 82.2457 94.3326 82.2457V83.5407C99.3463 83.5407 103.428 82.1642 106.508 79.352L105.635 78.3957ZM94.3326 82.2457C89.5642 82.2457 85.7964 80.9427 82.9629 78.3926L82.0966 79.3551C85.2177 82.1641 89.3184 83.5407 94.3326 83.5407V82.2457ZM82.9701 78.3991C80.2189 75.8473 78.7751 71.7606 78.7751 65.9865H77.4802C77.4802 71.9514 78.9712 76.4563 82.0895 79.3486L82.9701 78.3991ZM78.7751 65.9865C78.7751 60.2114 80.2193 56.1493 82.9664 53.6411L82.0932 52.6848C78.9708 55.5357 77.4802 60.0226 77.4802 65.9865H78.7751ZM82.9667 53.6408C85.8004 51.05 89.5669 49.7273 94.3326 49.7273V48.4323C89.3158 48.4323 85.2137 49.8317 82.0929 52.6851L82.9667 53.6408ZM94.3326 53.0258C91.7291 53.0258 89.5816 53.3931 87.9314 54.1724L88.4844 55.3434C89.8965 54.6765 91.8321 54.3208 94.3326 54.3208V53.0258ZM87.925 54.1755C86.2725 54.9781 85.047 56.3638 84.2314 58.267L85.4217 58.7771C86.1372 57.1075 87.1659 55.9838 88.4908 55.3403L87.925 54.1755ZM84.2263 58.2791C83.4582 60.177 83.0945 62.7607 83.0945 65.9865H84.3894C84.3894 62.8324 84.7488 60.4398 85.4267 58.765L84.2263 58.2791ZM83.0945 65.9865C83.0945 69.2123 83.4582 71.796 84.2263 73.6939L85.4267 73.208C84.7488 71.5331 84.3894 69.1406 84.3894 65.9865H83.0945ZM84.2314 73.706C85.047 75.6092 86.2725 76.9949 87.925 77.7975L88.4908 76.6327C87.1659 75.9892 86.1372 74.8655 85.4217 73.1959L84.2314 73.706ZM87.9314 77.8006C89.5816 78.5798 91.7291 78.9472 94.3326 78.9472V77.6522C91.8321 77.6522 89.8965 77.2964 88.4844 76.6296L87.9314 77.8006ZM94.3326 78.9472C96.9345 78.9472 99.0647 78.5803 100.676 77.7975L100.111 76.6327C98.7449 77.296 96.8345 77.6522 94.3326 77.6522V78.9472ZM100.67 77.8006C102.369 76.9984 103.6 75.6087 104.375 73.6939L103.175 73.208C102.504 74.866 101.481 75.9857 100.117 76.6296L100.67 77.8006ZM104.37 73.706C105.185 71.8036 105.571 69.2149 105.571 65.9865H104.276C104.276 69.1379 103.896 71.5256 103.18 73.1959L104.37 73.706ZM105.571 65.9865C105.571 62.7581 105.185 60.1694 104.37 58.267L103.18 58.7771C103.896 60.4474 104.276 62.835 104.276 65.9865H105.571ZM104.375 58.2791C103.6 56.3643 102.369 54.9746 100.67 54.1724L100.117 55.3434C101.481 55.9873 102.504 57.107 103.175 58.765L104.375 58.2791ZM100.676 54.1755C99.0647 53.3927 96.9345 53.0258 94.3326 53.0258V54.3208C96.8345 54.3208 98.7449 54.677 100.111 55.3403L100.676 54.1755ZM125.712 37.1494L125.254 37.6073L125.26 37.6134L125.266 37.6195L125.712 37.1494ZM125.712 43.6569L125.266 43.1869L125.26 43.1929L125.254 43.1991L125.712 43.6569ZM119.396 43.6569L118.938 44.1147L118.944 44.1209L118.95 44.1269L119.396 43.6569ZM119.396 37.1494L118.95 36.6794L118.944 36.6854L118.938 36.6916L119.396 37.1494ZM123.032 93.739L122.597 93.2593L122.591 93.2649L123.032 93.739ZM111.229 95.2702L111.622 94.7551L111.229 95.2702ZM110.91 89.4007L110.502 88.8981L110.493 88.9056L110.484 88.9134L110.91 89.4007ZM114.419 88.5713L115.005 88.2956L114.83 87.9238H114.419V88.5713ZM115.95 91.825L115.365 92.1007L115.54 92.4725H115.95V91.825ZM120.416 55.3959H121.064V54.9623L120.663 54.7972L120.416 55.3959ZM116.078 53.6095H115.431V54.0431L115.831 54.2082L116.078 53.6095ZM116.078 49.973V49.3255H115.431V49.973H116.078ZM125.775 49.973H126.423V49.3255H125.775V49.973ZM122.585 36.6485C123.772 36.6485 124.635 36.9886 125.254 37.6073L126.169 36.6916C125.257 35.779 124.036 35.3536 122.585 35.3536V36.6485ZM125.266 37.6195C125.913 38.2326 126.276 39.1281 126.276 40.4032H127.571C127.571 38.8711 127.126 37.5974 126.157 36.6794L125.266 37.6195ZM126.276 40.4032C126.276 41.6782 125.913 42.5737 125.266 43.1869L126.157 44.1269C127.126 43.2089 127.571 41.9353 127.571 40.4032H126.276ZM125.254 43.1991C124.635 43.8177 123.772 44.1578 122.585 44.1578V45.4528C124.036 45.4528 125.257 45.0273 126.169 44.1147L125.254 43.1991ZM122.585 44.1578C121.4 44.1578 120.507 43.8179 119.841 43.1869L118.95 44.1269C119.9 45.0271 121.134 45.4528 122.585 45.4528V44.1578ZM119.853 43.1991C119.242 42.5879 118.895 41.6881 118.895 40.4032H117.6C117.6 41.9254 118.018 43.1947 118.938 44.1147L119.853 43.1991ZM118.895 40.4032C118.895 39.1182 119.242 38.2184 119.853 37.6073L118.938 36.6916C118.018 37.6116 117.6 38.881 117.6 40.4032H118.895ZM119.841 37.6195C120.507 36.9884 121.4 36.6485 122.585 36.6485V35.3536C121.134 35.3536 119.9 35.7793 118.95 36.6794L119.841 37.6195ZM125.128 86.2107C125.128 89.4568 124.247 91.7629 122.597 93.2594L123.467 94.2186C125.475 92.3975 126.423 89.6848 126.423 86.2107H125.128ZM122.591 93.2649C120.911 94.8278 118.596 95.6435 115.568 95.6435V96.9384C118.834 96.9384 121.495 96.0527 123.473 94.2131L122.591 93.2649ZM115.568 95.6435C113.612 95.6435 112.343 95.3049 111.622 94.7551L110.837 95.7852C111.902 96.5964 113.525 96.9384 115.568 96.9384V95.6435ZM111.622 94.7551C110.929 94.2274 110.537 93.4014 110.537 92.144H109.242C109.242 93.6938 109.743 94.9519 110.837 95.7852L111.622 94.7551ZM110.537 92.144C110.537 91.0261 110.843 90.3203 111.337 89.8879L110.484 88.9134C109.617 89.672 109.242 90.795 109.242 92.144H110.537ZM111.319 89.9032C111.818 89.4972 112.794 89.2188 114.419 89.2188V87.9238C112.727 87.9238 111.363 88.1982 110.502 88.8981L111.319 89.9032ZM113.833 88.847L115.365 92.1007L116.536 91.5493L115.005 88.2956L113.833 88.847ZM115.95 92.4725C117.544 92.4725 118.856 92.0618 119.764 91.128C120.669 90.1976 121.064 88.858 121.064 87.2315H119.769C119.769 88.6674 119.42 89.6245 118.836 90.2253C118.255 90.8227 117.335 91.1775 115.95 91.1775V92.4725ZM121.064 87.2315V55.3959H119.769V87.2315H121.064ZM120.663 54.7972L116.325 53.0108L115.831 54.2082L120.17 55.9946L120.663 54.7972ZM116.725 53.6095V49.973H115.431V53.6095H116.725ZM116.078 50.6205H125.775V49.3255H116.078V50.6205ZM125.128 49.973V86.2107H126.423V49.973H125.128ZM160.866 53.1629L160.404 53.6172L160.412 53.6244L160.866 53.1629ZM164.949 67.7091V68.3565H165.596V67.7091H164.949ZM139.94 67.7091V67.0616H139.242L139.294 67.7572L139.94 67.7091ZM141.471 74.2803L140.898 74.5826L140.903 74.5922L140.909 74.6016L141.471 74.2803ZM145.107 77.4065L144.878 78.0121L144.884 78.014L145.107 77.4065ZM163.737 76.8323H164.384V76.0052L163.581 76.2038L163.737 76.8323ZM163.737 81.4258L163.898 82.053L164.384 81.9282V81.4258H163.737ZM157.931 82.4466L157.857 81.8033L157.845 81.8049L157.931 82.4466ZM138.728 79.0653L139.152 78.5767L138.728 79.0653ZM138.664 53.2267L138.216 52.7587L138.664 53.2267ZM142.747 55.9063L143.198 56.3705L142.747 55.9063ZM140.004 63.1793L139.359 63.1222L139.296 63.8268H140.004V63.1793ZM159.271 63.1793V63.8268H159.973L159.916 63.127L159.271 63.1793ZM156.655 56.0977L156.179 56.5364L156.185 56.5426L156.655 56.0977ZM150.339 49.7273C154.529 49.7273 157.863 51.0359 160.404 53.6171L161.327 52.7087C158.509 49.8458 154.825 48.4323 150.339 48.4323V49.7273ZM160.412 53.6244C162.968 56.1409 164.301 59.9447 164.301 65.1571H165.596C165.596 59.7364 164.208 55.544 161.32 52.7015L160.412 53.6244ZM164.301 65.1571V67.7091H165.596V65.1571H164.301ZM164.949 67.0616H139.94V68.3565H164.949V67.0616ZM139.294 67.7572C139.51 70.6453 140.03 72.9377 140.898 74.5826L142.044 73.9781C141.295 72.5607 140.795 70.4722 140.585 67.6609L139.294 67.7572ZM140.909 74.6016C141.832 76.2181 143.161 77.3623 144.878 78.0121L145.337 76.8009C143.906 76.2598 142.811 75.3199 142.033 73.9591L140.909 74.6016ZM144.884 78.014C146.602 78.6473 148.901 78.9472 151.743 78.9472V77.6522C148.97 77.6522 146.845 77.3566 145.331 76.7989L144.884 78.014ZM151.743 78.9472C155.836 78.9472 159.886 78.4516 163.892 77.4608L163.581 76.2038C159.676 77.1695 155.73 77.6522 151.743 77.6522V78.9472ZM163.089 76.8323V81.4258H164.384V76.8323H163.089ZM163.576 80.7986C161.953 81.2149 160.047 81.5506 157.857 81.8034L158.005 83.0898C160.238 82.8322 162.203 82.4874 163.898 82.053L163.576 80.7986ZM157.845 81.8049C155.658 82.0992 153.582 82.2457 151.615 82.2457V83.5407C153.646 83.5407 155.78 83.3894 158.017 83.0883L157.845 81.8049ZM151.615 82.2457C146.045 82.2457 141.926 80.9882 139.152 78.5767L138.303 79.5538C141.399 82.2462 145.872 83.5407 151.615 83.5407V82.2457ZM139.152 78.5767C136.424 76.2044 134.973 72.0747 134.973 65.9865H133.678C133.678 72.2327 135.161 76.8222 138.303 79.5538L139.152 78.5767ZM134.973 65.9865C134.973 60.3435 136.394 56.2922 139.111 53.6948L138.216 52.7587C135.149 55.6905 133.678 60.1457 133.678 65.9865H134.973ZM139.111 53.6948C141.857 51.0698 145.575 49.7273 150.339 49.7273V48.4323C145.32 48.4323 141.255 49.8544 138.216 52.7587L139.111 53.6948ZM150.02 53.0258C146.624 53.0258 144 53.7851 142.296 55.442L143.198 56.3705C144.556 55.0502 146.78 54.3208 150.02 54.3208V53.0258ZM142.296 55.442C140.604 57.0862 139.662 59.6924 139.359 63.1222L140.648 63.2365C140.94 59.9461 141.827 57.7036 143.198 56.3705L142.296 55.442ZM140.004 63.8268H159.271V62.5319H140.004V63.8268ZM159.916 63.127C159.654 59.8978 158.753 57.373 157.125 55.6527L156.185 56.5426C157.535 57.9698 158.377 60.166 158.625 63.2317L159.916 63.127ZM157.131 55.659C155.483 53.8692 153.072 53.0258 150.02 53.0258V54.3208C152.837 54.3208 154.85 55.0937 156.179 56.5363L157.131 55.659ZM194.026 50.4196L193.685 50.9705L194.026 50.4196ZM190.07 59.8618L189.478 60.1226L189.648 60.5093H190.07V59.8618ZM187.263 53.4819L187.856 53.2212L187.686 52.8344H187.263V53.4819ZM179.671 54.6303L179.405 54.0398L179.671 54.6303ZM176.098 58.3944L175.495 58.159L175.492 58.1671L176.098 58.3944ZM176.226 73.5786L175.626 73.8215L175.631 73.8336L176.226 73.5786ZM179.671 77.2789L179.408 77.8706L179.414 77.8732L179.671 77.2789ZM191.027 77.9807L191.119 78.6217L191.128 78.6204L191.137 78.6188L191.027 77.9807ZM195.684 76.7047H196.332V75.7761L195.461 76.0971L195.684 76.7047ZM195.684 81.2982L195.918 81.902L196.332 81.7419V81.2982H195.684ZM191.027 82.4466L190.936 81.8056L190.927 81.8069L190.918 81.8083L191.027 82.4466ZM173.674 79.1291L173.235 79.6049L173.242 79.6118L173.674 79.1291ZM173.738 53.0991L174.181 53.571L174.181 53.5708L173.738 53.0991ZM186.561 49.7273C190.076 49.7273 192.404 50.1789 193.685 50.9705L194.366 49.8687C192.755 48.8739 190.107 48.4323 186.561 48.4323V49.7273ZM193.685 50.9705C194.909 51.7261 195.547 52.922 195.547 54.6941H196.842C196.842 52.5532 196.035 50.8995 194.366 49.8687L193.685 50.9705ZM195.547 54.6941C195.547 56.2853 195.081 57.3705 194.246 58.075C193.39 58.7973 192.036 59.2143 190.07 59.2143V60.5093C192.187 60.5093 193.896 60.065 195.081 59.0647C196.288 58.0467 196.842 56.548 196.842 54.6941H195.547ZM190.663 59.601L187.856 53.2212L186.67 53.7427L189.478 60.1226L190.663 59.601ZM187.263 52.8344C183.873 52.8344 181.232 53.2176 179.405 54.0398L179.937 55.2208C181.512 54.5118 183.933 54.1294 187.263 54.1294V52.8344ZM179.405 54.0398C177.549 54.8753 176.237 56.2578 175.495 58.159L176.701 58.6298C177.321 57.0434 178.391 55.9165 179.937 55.2208L179.405 54.0398ZM175.492 58.1671C174.813 59.9776 174.494 62.5583 174.494 65.8589H175.789C175.789 62.6095 176.107 60.2139 176.704 58.6218L175.492 58.1671ZM174.494 65.8589C174.494 69.2496 174.856 71.9208 175.626 73.8215L176.826 73.3356C176.149 71.6636 175.789 69.1883 175.789 65.8589H174.494ZM175.631 73.8336C176.45 75.7444 177.704 77.1132 179.408 77.8706L179.934 76.6872C178.576 76.0835 177.533 74.9855 176.821 73.3235L175.631 73.8336ZM179.414 77.8732C181.102 78.6029 183.327 78.9472 186.051 78.9472V77.6522C183.415 77.6522 181.388 77.3159 179.928 76.6846L179.414 77.8732ZM186.051 78.9472C187.904 78.9472 189.594 78.8395 191.119 78.6217L190.936 77.3397C189.483 77.5472 187.855 77.6522 186.051 77.6522V78.9472ZM191.137 78.6188C192.669 78.3561 194.26 77.9195 195.908 77.3123L195.461 76.0971C193.876 76.6808 192.362 77.0948 190.918 77.3425L191.137 78.6188ZM195.037 76.7047V81.2982H196.332V76.7047H195.037ZM195.451 80.6944C194.189 81.183 192.686 81.5556 190.936 81.8056L191.119 83.0876C192.941 82.8272 194.543 82.4342 195.918 81.902L195.451 80.6944ZM190.918 81.8083C189.21 82.1 187.502 82.2457 185.796 82.2457V83.5407C187.577 83.5407 189.357 83.3886 191.136 83.0848L190.918 81.8083ZM185.796 82.2457C180.617 82.2457 176.754 81.0137 174.105 78.6463L173.242 79.6118C176.208 82.2632 180.426 83.5407 185.796 83.5407V82.2457ZM174.113 78.6533C171.545 76.2832 170.174 72.1482 170.174 66.0503H168.879C168.879 72.2868 170.273 76.871 173.235 79.6048L174.113 78.6533ZM170.174 66.0503C170.174 60.1341 171.561 56.0318 174.181 53.571L173.294 52.6272C170.3 55.4405 168.879 59.9723 168.879 66.0503H170.174ZM174.181 53.5708C176.866 51.0466 180.952 49.7273 186.561 49.7273V48.4323C180.772 48.4323 176.309 49.7925 173.294 52.6274L174.181 53.5708ZM207.999 80.0222L207.553 80.4914L207.559 80.4967L207.999 80.0222ZM205.383 54.4389H206.031V53.7914H205.383V54.4389ZM200.407 54.4389H199.76V55.0864H200.407V54.4389ZM200.407 50.8662L200.293 50.2289L199.76 50.3246V50.8662H200.407ZM205.383 49.973L205.498 50.6103L205.929 50.5329L206.017 50.1042L205.383 49.973ZM207.297 40.7222V40.0747H206.77L206.663 40.591L207.297 40.7222ZM210.743 40.7222H211.39V40.0747H210.743V40.7222ZM210.743 49.973H210.095V50.6167L210.739 50.6205L210.743 49.973ZM221.652 50.0368H222.3V49.3931L221.656 49.3893L221.652 50.0368ZM221.652 54.5027L221.648 55.1502L222.3 55.154V54.5027H221.652ZM210.743 54.4389L210.746 53.7914L210.095 53.7876V54.4389H210.743ZM211.38 75.5563L211.965 75.2779L211.38 75.5563ZM222.29 77.4703H222.938V76.6888L222.17 76.8341L222.29 77.4703ZM222.29 81.9362L222.447 82.5644L222.938 82.4417V81.9362H222.29ZM216.803 81.8629C212.781 81.8629 210.048 81.0409 208.44 79.5478L207.559 80.4967C209.523 82.3211 212.66 83.1579 216.803 83.1579V81.8629ZM208.445 79.5531C206.892 78.0756 206.031 75.4884 206.031 71.6008H204.736C204.736 75.6243 205.618 78.6513 207.553 80.4914L208.445 79.5531ZM206.031 71.6008V54.4389H204.736V71.6008H206.031ZM205.383 53.7914H200.407V55.0864H205.383V53.7914ZM201.055 54.4389V50.8662H199.76V54.4389H201.055ZM200.521 51.5035L205.498 50.6103L205.269 49.3357L200.293 50.2289L200.521 51.5035ZM206.017 50.1042L207.931 40.8533L206.663 40.591L204.749 49.8418L206.017 50.1042ZM207.297 41.3696H210.743V40.0747H207.297V41.3696ZM210.095 40.7222V49.973H211.39V40.7222H210.095ZM210.739 50.6205L221.648 50.6843L221.656 49.3893L210.746 49.3255L210.739 50.6205ZM221.005 50.0368V54.5027H222.3V50.0368H221.005ZM221.656 53.8552L210.746 53.7914L210.739 55.0864L221.648 55.1502L221.656 53.8552ZM210.095 54.4389V71.6008H211.39V54.4389H210.095ZM210.095 71.6008C210.095 73.3782 210.309 74.8117 210.796 75.8347L211.965 75.2779C211.602 74.5146 211.39 73.311 211.39 71.6008H210.095ZM210.796 75.8347C211.299 76.8922 212.14 77.6239 213.273 78.018L213.699 76.7949C212.875 76.5086 212.312 76.0068 211.965 75.2779L210.796 75.8347ZM213.273 78.018C214.354 78.394 215.865 78.5644 217.76 78.5644V77.2694C215.913 77.2694 214.574 77.0995 213.699 76.7949L213.273 78.018ZM217.76 78.5644C219.251 78.5644 220.801 78.4109 222.41 78.1065L222.17 76.8341C220.632 77.1251 219.162 77.2694 217.76 77.2694V78.5644ZM221.643 77.4703V81.9362H222.938V77.4703H221.643ZM222.133 81.3081C220.667 81.6744 218.894 81.8629 216.803 81.8629V83.1579C218.966 83.1579 220.85 82.9635 222.447 82.5644L222.133 81.3081Z" fill="#3B3A63" mask="url(#path-4-outside-2_1_375)"/>
<path d="M155.984 68.1567C156.138 68.3686 156.283 68.5874 156.414 68.8175C156.455 68.8904 156.491 68.9658 156.525 69.0413L160.974 68.7511C159.898 67.8035 157.776 65.2599 155.322 61.7833L152 62C153.468 63.9578 154.664 66.097 155.984 68.1567Z" fill="white"/>
<path d="M84.3143 48.441C84.4479 48.6293 84.5794 48.8197 84.7103 49.0107C85.6622 49.9869 86.4798 51.1374 87.199 52.09C88.0132 53.1686 88.7228 54.3129 89.4808 55.4303C90.007 56.2056 90.6598 56.9858 91.0495 57.8588H96.216C95.4268 57.2551 93.9066 55.8664 91.3825 52.7318C90.2216 51.2897 89.0225 49.6926 87.8249 48H84C84.1059 48.1468 84.2098 48.2942 84.3143 48.441Z" fill="white"/>
<path d="M61.007 24.0139C67.6382 24.0139 73.0139 18.6382 73.0139 12.007C73.0139 5.37571 67.6382 0 61.007 0C54.3757 0 49 5.37571 49 12.007C49 18.6382 54.3757 24.0139 61.007 24.0139Z" fill="url(#paint1_linear_1_375)"/>
<path d="M41.416 91.5485C41.6008 88.6749 39.4222 86.1958 36.5485 86.0109C33.6755 85.8261 31.1958 88.0047 31.0109 90.8784C30.8261 93.7514 33.0047 96.2311 35.8784 96.416C38.7521 96.6008 41.2311 94.4215 41.416 91.5485Z" fill="url(#paint2_linear_1_375)"/>
<path d="M95.105 107.615C93.9662 102.961 89.2697 100.111 84.6155 101.251C79.9613 102.39 77.1118 107.086 78.2506 111.74C79.3894 116.395 84.0859 119.244 88.7401 118.105C93.3943 116.966 96.2445 112.269 95.105 107.615Z" fill="url(#paint3_linear_1_375)"/>
<path d="M139.356 15.2697C138.648 11.5375 135.05 9.08527 131.318 9.79243C127.585 10.4996 125.133 14.0983 125.84 17.8305C126.547 21.5627 130.146 24.0149 133.878 23.3078C137.611 22.6006 140.063 19.0012 139.356 15.2697Z" fill="url(#paint4_linear_1_375)"/>
<path d="M165.027 72.4963C164.704 70.7887 163.057 69.6659 161.349 69.9897C159.641 70.3133 158.519 71.9606 158.842 73.6682C159.166 75.3758 160.813 76.4985 162.521 76.1749C164.229 75.851 165.351 74.2039 165.027 72.4963Z" fill="url(#paint5_linear_1_375)"/>
<path d="M100.446 65.8219C100.768 62.9461 98.6969 60.3549 95.8219 60.033C92.9461 59.7111 90.3549 61.7817 90.033 64.6574C89.7111 67.5332 91.7817 70.1244 94.6567 70.4463C97.5318 70.7675 100.124 68.6976 100.446 65.8219Z" fill="url(#paint6_linear_1_375)"/>
<path d="M40.6528 89C42.9754 93.6674 74.4217 106.045 82.1906 102.179L78.0528 113.302C74.6987 105.298 42.8086 94.1153 38 96.1305L40.6528 89Z" fill="url(#paint7_linear_1_375)"/>
<path d="M82 101.893C89.413 97.3812 93.7003 72.4756 90.9761 68L98.5103 69.53C94.2562 72.5885 88.4909 97.1943 93.557 104.24L82 101.893Z" fill="url(#paint8_linear_1_375)"/>
<path d="M139.088 17.1222C136.877 23.6358 160.527 69.1718 163.508 70.184L159.439 72.4122C160.191 69.3557 137.609 23.2342 130.931 21.5893L139.088 17.1222Z" fill="url(#paint9_linear_1_375)"/>
<path d="M72.485 15C69.3379 26.5881 91.7367 58.8728 96.7925 60.2463L90.2455 64.4748C91.0735 59.3013 70.8567 25.6065 59 23.7096L72.485 15Z" fill="url(#paint10_linear_1_375)"/>
<path opacity="0.5" d="M61.007 24.0139C67.6382 24.0139 73.0139 18.6382 73.0139 12.007C73.0139 5.37571 67.6382 0 61.007 0C54.3757 0 49 5.37571 49 12.007C49 18.6382 54.3757 24.0139 61.007 24.0139Z" fill="url(#paint11_radial_1_375)"/>
<path opacity="0.75" d="M95.105 107.615C93.9662 102.961 89.2697 100.112 84.6155 101.251C79.9613 102.39 77.1118 107.087 78.2506 111.74C79.3894 116.394 84.0859 119.244 88.7401 118.105C93.3943 116.966 96.2445 112.27 95.105 107.615Z" fill="url(#paint12_radial_1_375)"/>
<path opacity="0.75" d="M139.356 15.2697C138.648 11.5375 135.05 9.08527 131.318 9.79243C127.585 10.4996 125.133 14.0983 125.84 17.8305C126.547 21.5627 130.146 24.0149 133.878 23.3078C137.611 22.6006 140.063 19.0012 139.356 15.2697Z" fill="url(#paint13_radial_1_375)"/>
<path d="M125.507 17.9159C126.173 22.8225 113.274 40.8913 103.533 51.469C104.424 51.9625 105.254 52.5583 106.009 53.2456C113.954 41.2482 128.155 24.3615 133.063 23.8298L125.507 17.9159Z" fill="url(#paint14_linear_1_375)"/>
<path d="M108.064 55.2565L110.121 54.5334C108.572 52.1962 106.444 50.3382 103.892 49.1346C102.723 48.5834 101.489 48.1824 100.213 47.9304L100.692 50.1195C103.557 50.9412 106.29 52.8098 108.064 55.2565Z" fill="white"/>
<defs>
<linearGradient id="paint0_linear_1_375" x1="52.9186" y1="76.1404" x2="144.406" y2="46.7346" gradientUnits="userSpaceOnUse">
<stop stop-color="#54D1F8"/>
<stop offset="0.25" stop-color="#2A7AF3"/>
<stop offset="0.3407" stop-color="#415AF1"/>
<stop offset="0.5" stop-color="#701AED"/>
<stop offset="0.75" stop-color="#2A7AF3"/>
<stop offset="0.8492" stop-color="#399AF5"/>
<stop offset="1" stop-color="#54D1F8"/>
</linearGradient>
<linearGradient id="paint1_linear_1_375" x1="52.3677" y1="12.0073" x2="148.465" y2="12.0073" gradientUnits="userSpaceOnUse">
<stop stop-color="#54D1F8"/>
<stop offset="0.25" stop-color="#2A7AF3"/>
<stop offset="0.3407" stop-color="#415AF1"/>
<stop offset="0.5" stop-color="#701AED"/>
<stop offset="0.75" stop-color="#2A7AF3"/>
<stop offset="0.8492" stop-color="#399AF5"/>
<stop offset="1" stop-color="#54D1F8"/>
</linearGradient>
<linearGradient id="paint2_linear_1_375" x1="52.0637" y1="91.2131" x2="148.161" y2="91.2131" gradientUnits="userSpaceOnUse">
<stop stop-color="#54D1F8"/>
<stop offset="0.25" stop-color="#2A7AF3"/>
<stop offset="0.3407" stop-color="#415AF1"/>
<stop offset="0.5" stop-color="#701AED"/>
<stop offset="0.75" stop-color="#2A7AF3"/>
<stop offset="0.8492" stop-color="#399AF5"/>
<stop offset="1" stop-color="#54D1F8"/>
</linearGradient>
<linearGradient id="paint3_linear_1_375" x1="52.4568" y1="109.678" x2="148.554" y2="109.678" gradientUnits="userSpaceOnUse">
<stop stop-color="#54D1F8"/>
<stop offset="0.25" stop-color="#2A7AF3"/>
<stop offset="0.3407" stop-color="#415AF1"/>
<stop offset="0.5" stop-color="#701AED"/>
<stop offset="0.75" stop-color="#2A7AF3"/>
<stop offset="0.8492" stop-color="#399AF5"/>
<stop offset="1" stop-color="#54D1F8"/>
</linearGradient>
<linearGradient id="paint4_linear_1_375" x1="43.6999" y1="43.9186" x2="135.543" y2="15.6431" gradientUnits="userSpaceOnUse">
<stop stop-color="#54D1F8"/>
<stop offset="0.25" stop-color="#2A7AF3"/>
<stop offset="0.3407" stop-color="#415AF1"/>
<stop offset="0.5" stop-color="#701AED"/>
<stop offset="0.75" stop-color="#2A7AF3"/>
<stop offset="0.8492" stop-color="#399AF5"/>
<stop offset="1" stop-color="#54D1F8"/>
</linearGradient>
<linearGradient id="paint5_linear_1_375" x1="52.5265" y1="106.766" x2="144.37" y2="78.4901" gradientUnits="userSpaceOnUse">
<stop stop-color="#54D1F8"/>
<stop offset="0.25" stop-color="#2A7AF3"/>
<stop offset="0.3407" stop-color="#415AF1"/>
<stop offset="0.5" stop-color="#701AED"/>
<stop offset="0.75" stop-color="#2A7AF3"/>
<stop offset="0.8492" stop-color="#399AF5"/>
<stop offset="1" stop-color="#54D1F8"/>
</linearGradient>
<linearGradient id="paint6_linear_1_375" x1="52.0777" y1="65.2394" x2="148.175" y2="65.2394" gradientUnits="userSpaceOnUse">
<stop stop-color="#54D1F8"/>
<stop offset="0.25" stop-color="#2A7AF3"/>
<stop offset="0.3407" stop-color="#415AF1"/>
<stop offset="0.5" stop-color="#701AED"/>
<stop offset="0.75" stop-color="#2A7AF3"/>
<stop offset="0.8492" stop-color="#399AF5"/>
<stop offset="1" stop-color="#54D1F8"/>
</linearGradient>
<linearGradient id="paint7_linear_1_375" x1="51.8351" y1="101.151" x2="147.933" y2="101.151" gradientUnits="userSpaceOnUse">
<stop stop-color="#54D1F8"/>
<stop offset="0.25" stop-color="#2A7AF3"/>
<stop offset="0.3407" stop-color="#415AF1"/>
<stop offset="0.5" stop-color="#701AED"/>
<stop offset="0.75" stop-color="#2A7AF3"/>
<stop offset="0.8492" stop-color="#399AF5"/>
<stop offset="1" stop-color="#54D1F8"/>
</linearGradient>
<linearGradient id="paint8_linear_1_375" x1="52.2905" y1="86.1196" x2="148.388" y2="86.1196" gradientUnits="userSpaceOnUse">
<stop stop-color="#54D1F8"/>
<stop offset="0.25" stop-color="#2A7AF3"/>
<stop offset="0.3407" stop-color="#415AF1"/>
<stop offset="0.5" stop-color="#701AED"/>
<stop offset="0.75" stop-color="#2A7AF3"/>
<stop offset="0.8492" stop-color="#399AF5"/>
<stop offset="1" stop-color="#54D1F8"/>
</linearGradient>
<linearGradient id="paint9_linear_1_375" x1="39.2607" y1="34.3774" x2="135.347" y2="35.8292" gradientUnits="userSpaceOnUse">
<stop stop-color="#54D1F8"/>
<stop offset="0.25" stop-color="#2A7AF3"/>
<stop offset="0.3407" stop-color="#415AF1"/>
<stop offset="0.5" stop-color="#701AED"/>
<stop offset="0.75" stop-color="#2A7AF3"/>
<stop offset="0.8492" stop-color="#399AF5"/>
<stop offset="1" stop-color="#54D1F8"/>
</linearGradient>
<linearGradient id="paint10_linear_1_375" x1="52.2583" y1="39.7374" x2="148.356" y2="39.7374" gradientUnits="userSpaceOnUse">
<stop stop-color="#54D1F8"/>
<stop offset="0.25" stop-color="#2A7AF3"/>
<stop offset="0.3407" stop-color="#415AF1"/>
<stop offset="0.5" stop-color="#701AED"/>
<stop offset="0.75" stop-color="#2A7AF3"/>
<stop offset="0.8492" stop-color="#399AF5"/>
<stop offset="1" stop-color="#54D1F8"/>
</linearGradient>
<radialGradient id="paint11_radial_1_375" cx="0" cy="0" r="1" gradientUnits="userSpaceOnUse" gradientTransform="translate(66.262 19.581) scale(21.2277 21.2277)">
<stop offset="0.6684"/>
<stop offset="1" stop-color="white"/>
</radialGradient>
<radialGradient id="paint12_radial_1_375" cx="0" cy="0" r="1" gradientUnits="userSpaceOnUse" gradientTransform="translate(84.7605 106.512) scale(21.5809 21.5809)">
<stop offset="0.3036" stop-color="white"/>
<stop offset="1" stop-color="#231F20"/>
</radialGradient>
<radialGradient id="paint13_radial_1_375" cx="0" cy="0" r="1" gradientUnits="userSpaceOnUse" gradientTransform="translate(130.538 20.8691) rotate(-17.1119) scale(13.068 13.068)">
<stop offset="0.6684"/>
<stop offset="1" stop-color="white"/>
</radialGradient>
<linearGradient id="paint14_linear_1_375" x1="47.323" y1="57.0203" x2="139.166" y2="28.7447" gradientUnits="userSpaceOnUse">
<stop stop-color="#54D1F8"/>
<stop offset="0.25" stop-color="#2A7AF3"/>
<stop offset="0.3407" stop-color="#415AF1"/>
<stop offset="0.5" stop-color="#701AED"/>
<stop offset="0.75" stop-color="#2A7AF3"/>
<stop offset="0.8492" stop-color="#399AF5"/>
<stop offset="1" stop-color="#54D1F8"/>
</linearGradient>
</defs>
</svg>
